<svg id="Layer_1" data-name="Layer 1" xmlns="http://www.w3.org/2000/svg" viewBox="0 0 317.6 341.26"><defs><style>.cls-1{fill:#e63a38;}.cls-2{fill:#f5b13e;}.cls-3{fill:#f0923d;}.cls-4{fill:#fde173;}.cls-5{fill:#fefefe;}</style></defs><path class="cls-1" d="M809.76,557v39.18c6.59,22.47,24.27,41.25,47.87,51.95h0a112.06,112.06,0,0,0,59,8.75h0a105.93,105.93,0,0,0,41.59-14,108.63,108.63,0,0,0,49.83,11.79c43.69,0,80.58-24.69,92.17-58.46h0a52.43,52.43,0,0,0,1.6-5.32V556.25c-9.39-36.46-47.81-63.78-93.77-63.78a107.87,107.87,0,0,0-55.28,14.82,108.77,108.77,0,0,0-49.86-11.78c-44.47,0-81.89,25.55-92.77,60.26v0c-.16.44-.27.81-.41,1.25Z" transform="translate(-801.2 -343.08)"/><path class="cls-2" d="M1009.57,591.79s-82,26-115.39-.58l115.39.58Z" transform="translate(-801.2 -343.08)"/><path class="cls-2" d="M1009.57,591.79c-51.39-61.38-57-99.55-40-127,8.06-13,44.27-42.15,44.27-42.15-70-10.46-60.57-78.41-60.57-78.41l-.44-1.18s9.4,67.95-60.56,78.4l.15-.12s35.37,30.35,43.72,43.24c18.16,28,22,58.57-42,126.61l115.39.58Z" transform="translate(-801.2 -343.08)"/><path class="cls-2" d="M1078.16,435.22a47.82,47.82,0,0,0,0-7.85,60.89,60.89,0,0,0,0,7.85Z" transform="translate(-801.2 -343.08)"/><path class="cls-2" d="M1078.21,427.35c.08-.74.15-1.09.15-1.09l-.3-.81s.08.67.15,1.9Z" transform="translate(-801.2 -343.08)"/><path class="cls-2" d="M1066.9,506.63c11.62,17.87,14.5,37.35-22.77,78.82-1.69,1.88-3.43,3.79-5.28,5.76l63-1.93V571.49c-1.75-2.48-3.34-4.81-4.84-7.07-18.65-28.46-16.84-43-7.78-57.63,5.36-8.68,29.57-28.16,29.57-28.16-33.54-5-39.78-29.81-40.64-43.41-1,13.72-7.63,37.63-40.4,42.58,1.61,1.39,23.73,20.51,29.14,28.83Z" transform="translate(-801.2 -343.08)"/><path class="cls-2" d="M1037.6,477.84a.24.24,0,0,1,.16,0l-.08-.05-.08.09Z" transform="translate(-801.2 -343.08)"/><path class="cls-2" d="M809.76,583.17c4.4-5,8.16-9.61,11.37-13.95,22.9-30.68,19.35-47.23,9.37-62.59-5.4-8.32-27.54-27.44-29.11-28.83l-.11-.05-.08.09a.3.3,0,0,1,.19,0c32.75-4.95,39.34-28.86,40.38-42.58a51.22,51.22,0,0,0,0-7.85s0,0,0,0c.09-.74.13-1.09.13-1.09l-.27-.81s.06.67.14,1.9c0,0,0,0,0,0a57.81,57.81,0,0,0,0,7.85c.86,13.6,7.1,38.4,40.64,43.41,0,0-24.21,19.48-29.58,28.16-11.25,18.09-11.31,36.13,24.77,80.47.42.52.86,1,1.3,1.6L809.76,591v-7.79Z" transform="translate(-801.2 -343.08)"/><path class="cls-3" d="M809.76,556.39v62.74c0,11.5,18.47,21.85,47.87,29h0c16.59,4.05,36.71,7.11,59,8.75h0c12.43.94,25.58,1.44,39.17,1.44,78.43,0,142.43-16.61,145.86-37.46a7.67,7.67,0,0,0,.16-1.77V556.27a16.23,16.23,0,0,1-4.84,8.15c-8.55,8.52-27.46,15.86-52.88,21-2.05.42-4.11.82-6.24,1.21-23.33,4.28-51.51,6.74-81.87,6.74-5.95,0-11.77-.09-17.54-.27a448.32,448.32,0,0,1-60.88-5.87c-1.27-.2-2.48-.43-3.71-.62-23.31-4.3-41.8-10.31-52.76-17.42-6.44-4.18-10.27-8.67-11-13.43v0a2.46,2.46,0,0,1-.1-.5l-.31,1.12Z" transform="translate(-801.2 -343.08)"/><path class="cls-4" d="M809.76,587.82v53.41c0,23.82,65.41,43.11,146.07,43.11,78.43,0,142.43-18.25,145.86-41.16V592.09a14,14,0,0,1-1.44,4.17h0c-6.18,12.14-29.51,22.68-62.49,29.25-23.35,4.72-51.54,7.42-81.91,7.42s-58.71-2.7-82.1-7.46c-38.59-7.75-63.93-20.85-63.93-35.67,0-.56,0-1.25-.06-2Z" transform="translate(-801.2 -343.08)"/><polygon class="cls-5" points="160.76 313.57 140.17 313.57 150.48 291.68 160.76 313.57 160.76 313.57"/><polygon class="cls-5" points="140.17 313.57 160.76 313.57 150.48 335.44 140.17 313.57 140.17 313.57"/><path class="cls-5" d="M1007.15,651.72a11,11,0,1,0,11-11,11,11,0,0,0-11,11Z" transform="translate(-801.2 -343.08)"/><path class="cls-5" d="M874,651.72a11,11,0,1,0,11-11,11,11,0,0,0-11,11Z" transform="translate(-801.2 -343.08)"/></svg>