<svg xmlns="http://www.w3.org/2000/svg" viewBox="0 0 2878.7 1756.62"><defs><style>.cls-1{fill:#58595b;opacity:0.25;}.cls-2{fill:#ecaf12;}.cls-3{fill:#f9be15;}.cls-4{fill:#ffd800;}.cls-5{fill:#ffc515;}.cls-6{fill:#c9840a;}.cls-7{fill:#efa90c;}.cls-8{fill:#ffe755;}</style></defs><g id="Shadow"><ellipse class="cls-1" cx="2279.69" cy="2596.93" rx="1414.48" ry="337.63" transform="translate(-833.37 -1162.21) rotate(-0.4)"/></g><g id="Icon"><path class="cls-2" d="M1677.6,2611.33v205.51c-46.24,3.34-94.18,5.09-143.3,5.09a1919.61,1919.61,0,0,1-238.83-14.51V2601.9a1917.63,1917.63,0,0,0,238.83,14.52C1583.42,2616.42,1631.36,2614.66,1677.6,2611.33Z" transform="translate(-815.43 -1178.07)"/><path class="cls-2" d="M2230.78,2581.45c0,53.91-51.36,103.67-138.11,143.77V2519.79c80.58-37.2,130.68-82.72,137.54-132.15v184A84.57,84.57,0,0,1,2230.78,2581.45Z" transform="translate(-815.43 -1178.07)"/><path class="cls-3" d="M1295.47,2601.9v205.52c-267-33.65-457.65-122.12-457.65-226v-195h.42C850.58,2485.72,1037.36,2569.41,1295.47,2601.9Z" transform="translate(-815.43 -1178.07)"/><path class="cls-3" d="M1934.55,2572.8v205.49c-75.9,18.43-162.94,31.76-257,38.55V2611.33C1771.6,2604.54,1858.64,2591.22,1934.55,2572.8Z" transform="translate(-815.43 -1178.07)"/><path class="cls-4" d="M2092.67,2519.79v205.43c-44.21,20.44-97.63,38.37-158.12,53.07V2572.8C1995,2558.12,2048.45,2540.21,2092.67,2519.79Z" transform="translate(-815.43 -1178.07)"/><path class="cls-5" d="M2097.57,2429.16l73.14,44.8a341,341,0,0,1-37.51,24.93L2060,2454c-77.43,42.49-208.91,74.59-366.21,87.73l94.87,58.11q-34.48,4.66-70.7,8.09l-100.3-61.43c-27.23,1.15-55.06,1.74-83.34,1.74-90.36,0-176.06-6.07-252.93-16.94l133.1,81.53c-321.8-19.25-567.92-114.7-576.65-230.55,2.36-31.32,22.07-61.15,55.94-88.39l53.54,32.8c25-35,82.91-66.29,163.46-90.65L1068.14,2210q27.54-8.56,57.64-16.09l43.5,26.64c101.17-23.58,227.72-37.59,365-37.59q43.85,0,86.08,1.86l-59.42-36.4q42.06.56,82.77,2.79l64.53,39.53c49.72,4.56,96.72,11,140.07,19.15l-77.39-47.41c262.81,32.75,452.2,118.5,459.84,219.87-1.29,17.21-7.83,34-19.07,50.1l-79.66-48.8C2126.94,2399.48,2115.16,2414.75,2097.57,2429.16Z" transform="translate(-815.43 -1178.07)"/><path class="cls-6" d="M2134.94,2365.61a57.56,57.56,0,0,1-2,14.84c-12.17-42.74-80.44-81-184-108.94-46.57-12.56-100.26-23-159.2-30.86-30.16-4-61.71-7.34-94.37-9.9-51.27-4-105.31-6.18-161.12-6.18-116.27,0-224.83,9.33-316.79,25.49-22,3.87-43.1,8.13-63.1,12.75-85.2,19.68-150.91,45.83-187.72,75.79-16.3,13.28-26.93,27.3-31.07,41.85a57.56,57.56,0,0,1-2-14.84c0-13.34,4.7-26.36,13.64-38.88,25-35,82.91-66.29,163.46-90.65,18.37-5.56,37.92-10.76,58.52-15.56,101.17-23.58,227.72-37.59,365-37.59q43.85,0,86.08,1.86c30.07,1.32,59.43,3.3,87.88,5.92,49.72,4.56,96.72,11,140.07,19.15C2020.27,2242,2134.94,2299.72,2134.94,2365.61Z" transform="translate(-815.43 -1178.07)"/><path class="cls-7" d="M2133,2380.45c-.28,1.06-.6,2.12-.93,3.17-5.11,15.86-16.89,31.13-34.48,45.54A246.25,246.25,0,0,1,2060,2454c-77.43,42.49-208.91,74.59-366.21,87.73q-37.17,3.11-76.13,4.77c-27.23,1.15-55.06,1.74-83.34,1.74-90.36,0-176.06-6.07-252.93-16.94-191.36-27.06-328-83.87-345.75-150.89,4.14-14.55,14.77-28.57,31.07-41.85,36.81-30,102.52-56.11,187.72-75.79,20-4.62,41.08-8.88,63.1-12.75,92-16.16,200.52-25.49,316.79-25.49,55.81,0,109.85,2.15,161.12,6.18,32.66,2.56,64.2,5.88,94.36,9.9h0c58.94,7.83,112.63,18.3,159.19,30.86h0C2052.54,2299.43,2120.81,2337.71,2133,2380.45Z" transform="translate(-815.43 -1178.07)"/><path class="cls-8" d="M2231,2388.7c0,132.82-311.94,240.48-696.73,240.48S837.57,2521.52,837.57,2388.7q0-3.19.25-6.38c9.79,129.87,317.87,234.1,696.48,234.1s686.69-104.23,696.48-234.1Q2231,2385.5,2231,2388.7Z" transform="translate(-815.43 -1178.07)"/><path class="cls-8" d="M1848.33,2209.86c-43.35-8.11-90.35-14.59-140.07-19.15l-64.53-39.53c43.9,2.39,86.44,6.19,127.21,11.27Z" transform="translate(-815.43 -1178.07)"/><path class="cls-8" d="M2211.71,2432.42c-10,14.39-23.83,28.28-41,41.54l-73.14-44.8c17.59-14.41,29.37-29.68,34.48-45.54Z" transform="translate(-815.43 -1178.07)"/><path class="cls-5" d="M1339.89,2325l-10.27,0-18.2,23.94c-1.8,2.36-3.44,4.68-4.94,6.95l119.16,73q16,.46,33.91.45h1.64l-5.13,18.18,62.82,38.48h29.35l2.41-32Z" transform="translate(-815.43 -1178.07)"/><path class="cls-6" d="M1562,2351.3q19.11,2,28.25,5.84c4.88,2.08,8.18,4.8,9.89,8.21a13.26,13.26,0,0,0,2.9-9.25l-1.57-33.51c-.28-6-4-10.41-11.22-13.45q-9.12-3.88-28.25-5.85l-5.59,74,3.65-.27Z" transform="translate(-815.43 -1178.07)"/><path class="cls-6" d="M1495.52,2231.28c-5.87,1.46-9.45,3.73-10.72,6.86l-5,12.4c-1.52,3.77.38,6.76,5.8,8.92q7.07,2.8,22.47,3.89l9.76-34.57Q1503,2229.43,1495.52,2231.28Z" transform="translate(-815.43 -1178.07)"/><path class="cls-6" d="M1396.73,2282.05c-9-3.49-13.68-8-14.37-13.39l0,0v45.44c-.4,4.05,1.24,7.66,5,10.77l62.57-.22-11.55,28.6c-3.33,8.25-1.81,14.32,4.78,18a31.28,31.28,0,0,0,6.32,2.53l.45-1.11h-1.42l1.42-.14v-31.95q15.69,1.9,35.36,3.62l13.25-46.91C1445.78,2293.13,1412.09,2288,1396.73,2282.05Z" transform="translate(-815.43 -1178.07)"/><path class="cls-6" d="M1595.65,2238.73c-.14-3.58-2.72-6.1-7.69-7.62q-6.33-1.93-20.3-2.56l-3,39.53c51.94,4.19,88.21,9.24,108,15.23a99.64,99.64,0,0,1,15,5.79v-39l-91.67.48Z" transform="translate(-815.43 -1178.07)"/><path class="cls-6" d="M1461.2,2429.39h-1.65c-78.38.09-128.64-7-149.93-20.48-8.53-5.42-13.1-12.33-14-20.52l-.17-.09v46h0c.26,9.13,4.86,16.77,14.13,22.66,20.19,12.82,66.46,19.82,138,20.43Z" transform="translate(-815.43 -1178.07)"/><path class="cls-6" d="M1730.88,2367.57c0,16-9.4,29.21-29,39-27.78,13.85-78,21.62-149.34,22.64l-4.29,56.85h-103v48h103l4.29-56.86c71.33-1,121.56-8.78,149.34-22.63,19.13-9.54,28.52-22.38,29-37.81h0v-49.2Z" transform="translate(-815.43 -1178.07)"/><path class="cls-8" d="M1620.38,2184.79q-42.17-1.85-86.08-1.86c-137.3,0-263.85,14-365,37.59l-43.5-26.64c114.78-28.73,255.92-45.66,408.52-45.66q13.4,0,26.66.17Z" transform="translate(-815.43 -1178.07)"/><path class="cls-8" d="M2133.2,2498.89c-78.7,45.58-199.83,81.4-344.56,101l-94.87-58.11c157.3-13.14,288.78-45.24,366.21-87.73Z" transform="translate(-815.43 -1178.07)"/><path class="cls-8" d="M1726.85,2348.12,1714,2315.2c-5.9-15-19.76-25.42-41.23-31.89-19.85-6-56.11-11-108-15.23l3-39.53c9.31.42,16.09,1.27,20.3,2.56,5,1.52,7.55,4,7.69,7.62l.47,11.82,91.67-.48-4-10.14c-4.73-12.17-15.27-19.58-31.53-23-15.23-3.21-43-4.8-83.4-4.85l.83-11-4.25,0-35.4.23-4.51,0-3.11,11c-37.89.78-65.73,3.1-83.84,7.06-19.47,4.25-33.38,11.71-41.76,23l-10,13.43c-8.4,11.33-5.48,20.25,9.84,26.2s49,11.08,101.77,15.2l-22.66,80.29q-24-1.42-32.72-6.31c-6.59-3.68-8.11-9.76-4.77-18l11.54-28.6-110,.39,210.75,129.08,1.88-24.9c71.33-1,121.56-8.79,149.34-22.64C1729,2393,1736.54,2372.89,1726.85,2348.12Zm-218.78-84.77c-10.25-.71-17.76-2-22.48-3.89-5.41-2.16-7.32-5.15-5.79-8.92l5-12.39c1.27-3.14,4.85-5.41,10.72-6.86q7.51-1.87,22.31-2.52Zm83.57,107.93q-10.56,4.38-35.2,6l5.58-74q19.11,2,28.25,5.85c7.16,3,10.94,7.49,11.22,13.45l1.57,33.51C1603.38,2362.87,1599.6,2368,1591.64,2371.28Z" transform="translate(-815.43 -1178.07)"/><path class="cls-8" d="M1110.76,2236.08c-80.55,24.36-138.51,55.63-163.46,90.65l-53.54-32.8c40.07-32.23,100-60.82,174.38-84Z" transform="translate(-815.43 -1178.07)"/><path class="cls-8" d="M1717.94,2608c-58.5,5.5-120.08,8.45-183.64,8.45-40.86,0-80.9-1.22-119.83-3.55l-133.1-81.53c76.87,10.87,162.57,16.94,252.93,16.94,28.28,0,56.11-.59,83.34-1.74Z" transform="translate(-815.43 -1178.07)"/><path class="cls-8" d="M1425.64,2428.94c-59.13-1.75-98-8.56-116-20s-18.43-29.82-3.14-53Z" transform="translate(-815.43 -1178.07)"/><polygon class="cls-8" points="703.45 1307.98 629.77 1307.98 640.63 1269.5 703.45 1307.98"/><path class="cls-2" d="M1943.67,2366.08v205.51c-46.24,3.35-94.17,5.1-143.29,5.1a1919.66,1919.66,0,0,1-238.84-14.51V2356.66c74.49,9.4,154.93,14.51,238.84,14.51C1849.5,2371.17,1897.43,2369.42,1943.67,2366.08Z" transform="translate(-815.43 -1178.07)"/><path class="cls-2" d="M2496.86,2336.21c0,53.9-51.37,103.66-138.11,143.77V2274.54c80.58-37.2,130.67-82.71,137.53-132.14v184A84.58,84.58,0,0,1,2496.86,2336.21Z" transform="translate(-815.43 -1178.07)"/><path class="cls-3" d="M1561.54,2356.66v205.52c-267-33.65-457.65-122.13-457.65-226v-195h.42C1116.66,2240.47,1303.43,2324.16,1561.54,2356.66Z" transform="translate(-815.43 -1178.07)"/><path class="cls-3" d="M2200.62,2327.56V2533c-75.89,18.43-162.94,31.77-256.95,38.55V2366.08C2037.68,2359.3,2124.72,2346,2200.62,2327.56Z" transform="translate(-815.43 -1178.07)"/><path class="cls-4" d="M2358.75,2274.54V2480c-44.22,20.44-97.63,38.37-158.13,53.06V2327.56C2261.11,2312.88,2314.52,2295,2358.75,2274.54Z" transform="translate(-815.43 -1178.07)"/><path class="cls-5" d="M2363.65,2183.92l73.14,44.79a340.51,340.51,0,0,1-37.51,24.93l-73.23-44.84c-77.43,42.49-208.91,74.59-366.21,87.72l94.87,58.12q-34.49,4.67-70.69,8.08l-100.3-61.43q-40.86,1.74-83.34,1.75c-90.37,0-176.07-6.07-252.94-16.94l133.11,81.52c-321.81-19.24-567.92-114.69-576.66-230.54,2.36-31.32,22.07-61.15,55.95-88.39l53.53,32.8c25-35,82.91-66.29,163.46-90.65l-42.61-26.11q27.52-8.57,57.64-16.09l43.5,26.64c101.16-23.58,227.71-37.6,365-37.6,29.22,0,58,.64,86.07,1.86L1827,1903.15q42.08.54,82.77,2.79l64.54,39.53c49.71,4.56,96.71,11,140.07,19.14l-77.39-47.4c262.8,32.74,452.2,118.49,459.84,219.87-1.29,17.21-7.83,34-19.07,50.09l-79.67-48.79C2393,2154.24,2381.24,2169.51,2363.65,2183.92Z" transform="translate(-815.43 -1178.07)"/><path class="cls-6" d="M2401,2120.37a57.67,57.67,0,0,1-2,14.84c-12.17-42.75-80.43-81-184-108.94-46.56-12.56-100.25-23-159.19-30.86-30.17-4-61.71-7.34-94.37-9.9-51.28-4-105.31-6.18-161.12-6.18-116.28,0-224.84,9.33-316.8,25.49q-33,5.81-63.1,12.75c-85.19,19.67-150.91,45.83-187.71,75.79-16.31,13.28-26.93,27.3-31.07,41.85a57.67,57.67,0,0,1-2-14.84c0-13.35,4.7-26.36,13.63-38.88,25-35,82.91-66.29,163.46-90.65q27.57-8.34,58.53-15.56c101.16-23.58,227.71-37.6,365-37.6,29.22,0,58,.64,86.07,1.86,30.07,1.32,59.43,3.31,87.89,5.93,49.71,4.56,96.71,11,140.07,19.14C2286.35,1996.75,2401,2054.48,2401,2120.37Z" transform="translate(-815.43 -1178.07)"/><path class="cls-7" d="M2399.05,2135.21c-.28,1.06-.59,2.11-.93,3.17-5.1,15.86-16.88,31.13-34.47,45.54a246.37,246.37,0,0,1-37.6,24.88c-77.43,42.49-208.91,74.59-366.21,87.72q-37.15,3.12-76.12,4.77-40.86,1.74-83.34,1.75c-90.37,0-176.07-6.07-252.94-16.94-191.36-27.06-328-83.87-345.74-150.89,4.14-14.55,14.76-28.57,31.07-41.85,36.8-30,102.52-56.12,187.71-75.79q30-6.93,63.1-12.75c92-16.16,200.52-25.49,316.8-25.49,55.81,0,109.84,2.15,161.12,6.18,32.66,2.56,64.19,5.88,94.36,9.9h0c58.93,7.83,112.63,18.3,159.18,30.86h0C2318.62,2054.18,2386.88,2092.46,2399.05,2135.21Z" transform="translate(-815.43 -1178.07)"/><path class="cls-8" d="M2497.11,2143.46c0,132.81-311.94,240.48-696.73,240.48s-696.74-107.67-696.74-240.48c0-2.13.09-4.26.25-6.38,9.79,129.86,317.88,234.09,696.49,234.09s686.69-104.23,696.48-234.09C2497,2139.2,2497.11,2141.33,2497.11,2143.46Z" transform="translate(-815.43 -1178.07)"/><path class="cls-8" d="M2114.41,1964.61c-43.36-8.1-90.36-14.58-140.07-19.14l-64.54-39.53c43.91,2.38,86.44,6.19,127.22,11.27Z" transform="translate(-815.43 -1178.07)"/><path class="cls-8" d="M2477.79,2187.17c-10,14.4-23.84,28.28-41,41.54l-73.14-44.79c17.59-14.41,29.37-29.68,34.47-45.54Z" transform="translate(-815.43 -1178.07)"/><path class="cls-5" d="M1606,2079.78l-10.27,0-18.2,23.94q-2.7,3.55-5,7l119.16,73q16,.47,33.92.45h1.64l-5.13,18.18L1785,2240.8h29.34l2.41-31.94Z" transform="translate(-815.43 -1178.07)"/><path class="cls-6" d="M1828.1,2106.05q19.11,2,28.25,5.85c4.87,2.08,8.18,4.8,9.88,8.21a13.33,13.33,0,0,0,2.91-9.25l-1.57-33.52c-.28-6-4.06-10.4-11.22-13.45q-9.13-3.87-28.25-5.85l-5.59,74,3.64-.26Z" transform="translate(-815.43 -1178.07)"/><path class="cls-6" d="M1761.59,1986c-5.87,1.46-9.44,3.73-10.71,6.86l-5,12.4c-1.52,3.77.38,6.76,5.8,8.92q7.08,2.8,22.48,3.89l9.76-34.58Q1769.11,1984.18,1761.59,1986Z" transform="translate(-815.43 -1178.07)"/><path class="cls-6" d="M1662.8,2036.81c-9-3.49-13.67-8-14.36-13.4l0,0v45.45c-.4,4,1.24,7.65,5,10.77l62.56-.23-11.54,28.6c-3.33,8.25-1.81,14.33,4.77,18a30.84,30.84,0,0,0,6.33,2.52l.44-1.11h-1.41l1.41-.14v-32q15.7,1.92,35.37,3.63l13.24-46.92C1711.86,2047.88,1678.17,2042.78,1662.8,2036.81Z" transform="translate(-815.43 -1178.07)"/><path class="cls-6" d="M1861.73,1993.49c-.14-3.58-2.72-6.1-7.69-7.62q-6.33-1.93-20.3-2.56l-3,39.53c52,4.19,88.21,9.24,108.06,15.22a100.71,100.71,0,0,1,15,5.8v-39l-91.67.47Z" transform="translate(-815.43 -1178.07)"/><path class="cls-6" d="M1727.27,2184.15h-1.64c-78.38.1-128.65-7-149.93-20.47-8.54-5.42-13.11-12.33-14-20.53l-.17-.09v46h0c.27,9.14,4.87,16.78,14.14,22.67,20.18,12.82,66.45,19.82,138,20.42Z" transform="translate(-815.43 -1178.07)"/><path class="cls-6" d="M1997,2122.33c0,16-9.4,29.21-29,39-27.77,13.85-78,21.62-149.34,22.63l-4.29,56.86h-103v48h103l4.29-56.86c71.34-1,121.57-8.78,149.34-22.63,19.14-9.54,28.52-22.38,29-37.81h0v-49.2Z" transform="translate(-815.43 -1178.07)"/><path class="cls-8" d="M1886.45,1939.54c-28.1-1.22-56.85-1.86-86.07-1.86-137.31,0-263.86,14-365,37.6l-43.5-26.64c114.78-28.73,255.92-45.66,408.52-45.66q13.38,0,26.65.17Z" transform="translate(-815.43 -1178.07)"/><path class="cls-8" d="M2399.28,2253.64c-78.7,45.59-199.83,81.41-344.57,101l-94.87-58.12c157.3-13.13,288.78-45.23,366.21-87.72Z" transform="translate(-815.43 -1178.07)"/><path class="cls-8" d="M1992.92,2102.87,1980,2070c-5.89-15.05-19.75-25.42-41.22-31.89-19.85-6-56.11-11-108-15.23l3-39.53c9.3.42,16.08,1.27,20.3,2.56,5,1.52,7.55,4,7.69,7.62l.46,11.82,91.67-.48-3.94-10.14c-4.74-12.17-15.27-19.58-31.54-23-15.22-3.21-43-4.8-83.4-4.86l.83-11-4.25,0-35.39.22-4.52,0-3.11,11c-37.88.78-65.72,3.1-83.83,7-19.48,4.25-33.39,11.71-41.76,23l-10,13.43c-8.4,11.32-5.48,20.24,9.84,26.2s49,11.07,101.76,15.2l-22.66,80.29q-24-1.44-32.72-6.32c-6.58-3.67-8.1-9.75-4.77-18l11.55-28.6-110,.39,210.74,129.08,1.88-24.91c71.34-1,121.57-8.78,149.35-22.63C1995.06,2147.8,2002.62,2127.65,1992.92,2102.87Zm-218.78-84.77c-10.25-.7-17.75-2-22.47-3.88-5.42-2.16-7.32-5.15-5.8-8.92l5-12.4q1.9-4.7,10.71-6.86,7.53-1.86,22.31-2.51ZM1857.71,2126q-10.55,4.38-35.2,6l5.59-74q19.11,2,28.24,5.84c7.17,3.05,11,7.5,11.23,13.45l1.56,33.51C1869.46,2117.62,1865.68,2122.73,1857.71,2126Z" transform="translate(-815.43 -1178.07)"/><path class="cls-8" d="M1376.83,1990.84c-80.55,24.36-138.5,55.63-163.46,90.65l-53.53-32.8c40.07-32.23,100-60.83,174.38-84Z" transform="translate(-815.43 -1178.07)"/><path class="cls-8" d="M1984,2362.72c-58.51,5.51-120.08,8.45-183.64,8.45-40.86,0-80.9-1.21-119.83-3.55l-133.11-81.52C1624.31,2297,1710,2303,1800.38,2303q42.42,0,83.34-1.75Z" transform="translate(-815.43 -1178.07)"/><path class="cls-8" d="M1691.71,2183.7c-59.13-1.76-98-8.56-116-20s-18.43-29.82-3.15-53Z" transform="translate(-815.43 -1178.07)"/><polygon class="cls-8" points="969.53 1062.74 895.84 1062.74 906.71 1024.26 969.53 1062.74"/><path class="cls-2" d="M1943.67,2147.18v205.51c-46.24,3.34-94.17,5.1-143.29,5.1a1919.6,1919.6,0,0,1-238.84-14.52V2137.76a1919.66,1919.66,0,0,0,238.84,14.51C1849.5,2152.27,1897.43,2150.51,1943.67,2147.18Z" transform="translate(-815.43 -1178.07)"/><path class="cls-2" d="M2496.86,2117.31c0,53.9-51.37,103.66-138.11,143.76V2055.64c80.58-37.2,130.67-82.72,137.53-132.15v184A84.62,84.62,0,0,1,2496.86,2117.31Z" transform="translate(-815.43 -1178.07)"/><path class="cls-3" d="M1561.54,2137.76v205.51c-267-33.65-457.65-122.12-457.65-226v-195h.42C1116.66,2021.57,1303.43,2105.26,1561.54,2137.76Z" transform="translate(-815.43 -1178.07)"/><path class="cls-3" d="M2200.62,2108.65v205.49c-75.89,18.43-162.94,31.76-256.95,38.55V2147.18C2037.68,2140.39,2124.72,2127.07,2200.62,2108.65Z" transform="translate(-815.43 -1178.07)"/><path class="cls-4" d="M2358.75,2055.64v205.43c-44.22,20.45-97.63,38.37-158.13,53.07V2108.65C2261.11,2094,2314.52,2076.06,2358.75,2055.64Z" transform="translate(-815.43 -1178.07)"/><path class="cls-5" d="M2363.65,1965l73.14,44.8a341.94,341.94,0,0,1-37.51,24.93l-73.23-44.85c-77.43,42.49-208.91,74.59-366.21,87.73l94.88,58.11q-34.5,4.67-70.7,8.09l-100.3-61.43q-40.86,1.72-83.34,1.74c-90.37,0-176.07-6.07-252.94-16.94l133.11,81.53c-321.81-19.25-567.92-114.7-576.66-230.55,2.36-31.32,22.07-61.15,55.95-88.39l53.53,32.8c25-35,82.91-66.29,163.47-90.65l-42.62-26.11q27.52-8.55,57.64-16.09l43.5,26.64c101.16-23.58,227.71-37.59,365-37.59,29.22,0,58,.63,86.07,1.86L1827,1684.25q42.08.54,82.77,2.78l64.54,39.53c49.71,4.56,96.71,11,140.07,19.15L2037,1698.3c262.8,32.75,452.2,118.5,459.84,219.87-1.29,17.21-7.83,34-19.07,50.1l-79.67-48.8C2393,1935.33,2381.24,1950.6,2363.65,1965Z" transform="translate(-815.43 -1178.07)"/><path class="cls-6" d="M2401,1901.46a57.56,57.56,0,0,1-2,14.84c-12.17-42.74-80.43-81-184-108.94-46.56-12.56-100.25-23-159.19-30.86-30.17-4-61.71-7.34-94.37-9.9-51.28-4-105.31-6.18-161.12-6.18-116.28,0-224.84,9.34-316.8,25.49q-33,5.8-63.1,12.75c-85.19,19.68-150.91,45.83-187.71,75.79-16.31,13.28-26.93,27.31-31.07,41.85a57.56,57.56,0,0,1-2-14.84c0-13.34,4.7-26.35,13.63-38.88,25-35,82.91-66.29,163.47-90.65q27.56-8.34,58.52-15.56c101.16-23.58,227.71-37.59,365-37.59,29.22,0,58,.63,86.07,1.86,30.07,1.32,59.43,3.3,87.89,5.92,49.71,4.56,96.71,11,140.07,19.15C2286.35,1777.84,2401,1835.57,2401,1901.46Z" transform="translate(-815.43 -1178.07)"/><path class="cls-7" d="M2399.05,1916.3c-.28,1.06-.59,2.12-.93,3.17-5.1,15.86-16.88,31.13-34.47,45.54a244.89,244.89,0,0,1-37.6,24.88c-77.43,42.49-208.91,74.59-366.21,87.73q-37.15,3.11-76.12,4.77-40.86,1.72-83.34,1.74c-90.37,0-176.07-6.07-252.94-16.94-191.36-27.06-328-83.87-345.74-150.89,4.14-14.54,14.76-28.57,31.07-41.85,36.8-30,102.52-56.11,187.71-75.79q30-6.93,63.1-12.75c92-16.15,200.52-25.49,316.8-25.49,55.81,0,109.84,2.15,161.12,6.18,32.66,2.56,64.19,5.88,94.36,9.9h0c58.93,7.83,112.63,18.3,159.18,30.86h0C2318.62,1835.28,2386.88,1873.56,2399.05,1916.3Z" transform="translate(-815.43 -1178.07)"/><path class="cls-8" d="M2497.11,1924.55c0,132.82-311.94,240.48-696.73,240.48s-696.74-107.66-696.74-240.48c0-2.13.09-4.26.25-6.38,9.79,129.87,317.88,234.1,696.49,234.1s686.69-104.23,696.48-234.1C2497,1920.29,2497.11,1922.42,2497.11,1924.55Z" transform="translate(-815.43 -1178.07)"/><path class="cls-8" d="M2114.41,1745.71c-43.36-8.11-90.36-14.59-140.07-19.15L1909.8,1687c43.91,2.39,86.44,6.19,127.22,11.27Z" transform="translate(-815.43 -1178.07)"/><path class="cls-8" d="M2477.79,1968.27c-10,14.39-23.84,28.28-41,41.54l-73.14-44.8c17.59-14.41,29.37-29.68,34.47-45.54Z" transform="translate(-815.43 -1178.07)"/><path class="cls-5" d="M1606,1860.87l-10.27,0-18.2,23.94q-2.7,3.54-5,7l119.16,73q16,.46,33.92.45h1.64l-5.13,18.18L1785,2021.9h29.34l2.41-32Z" transform="translate(-815.43 -1178.07)"/><path class="cls-6" d="M1828.1,1887.15q19.11,2,28.25,5.85c4.87,2.07,8.18,4.8,9.88,8.2a13.31,13.31,0,0,0,2.91-9.25l-1.57-33.51c-.28-6-4.06-10.41-11.22-13.45q-9.12-3.88-28.25-5.85l-5.59,74,3.64-.27Z" transform="translate(-815.43 -1178.07)"/><path class="cls-6" d="M1761.59,1767.13c-5.87,1.46-9.44,3.73-10.71,6.87l-5,12.39c-1.52,3.78.38,6.77,5.8,8.92q7.08,2.81,22.48,3.89l9.76-34.57Q1769.11,1765.28,1761.59,1767.13Z" transform="translate(-815.43 -1178.07)"/><path class="cls-6" d="M1662.8,1817.9c-9-3.49-13.67-8-14.36-13.39l0,0v45.44c-.4,4.06,1.24,7.66,5,10.77l62.56-.22-11.54,28.6c-3.33,8.25-1.81,14.32,4.77,18a31.39,31.39,0,0,0,6.33,2.53l.44-1.11h-1.41l1.41-.14V1876.4q15.7,1.9,35.37,3.62l13.24-46.91C1711.86,1829,1678.17,1823.88,1662.8,1817.9Z" transform="translate(-815.43 -1178.07)"/><path class="cls-6" d="M1861.73,1774.58c-.14-3.58-2.72-6.1-7.69-7.62q-6.33-1.93-20.3-2.56l-3,39.53c52,4.19,88.21,9.24,108.06,15.23a101.81,101.81,0,0,1,15,5.79v-39l-91.67.48Z" transform="translate(-815.43 -1178.07)"/><path class="cls-6" d="M1727.27,1965.24h-1.64c-78.38.09-128.65-7-149.93-20.48-8.54-5.42-13.11-12.33-14-20.52l-.17-.09v46h0c.27,9.14,4.87,16.77,14.14,22.66,20.18,12.82,66.45,19.82,138,20.43Z" transform="translate(-815.43 -1178.07)"/><path class="cls-6" d="M1997,1903.42c0,16-9.4,29.22-29,39-27.77,13.85-78,21.62-149.34,22.64l-4.29,56.85h-103v48h103l4.29-56.85c71.34-1,121.57-8.79,149.34-22.64,19.14-9.53,28.52-22.38,29-37.81h0v-49.2Z" transform="translate(-815.43 -1178.07)"/><path class="cls-8" d="M1886.45,1720.64c-28.1-1.23-56.85-1.86-86.07-1.86-137.31,0-263.86,14-365,37.59l-43.5-26.64c114.78-28.72,255.92-45.66,408.52-45.66q13.38,0,26.65.18Z" transform="translate(-815.43 -1178.07)"/><path class="cls-8" d="M2399.28,2034.74c-78.7,45.58-199.83,81.4-344.56,101l-94.88-58.11c157.3-13.14,288.78-45.24,366.21-87.73Z" transform="translate(-815.43 -1178.07)"/><path class="cls-8" d="M1992.92,1884,1980,1851.05c-5.89-15-19.75-25.42-41.22-31.89-19.85-6-56.11-11-108-15.23l3-39.53c9.3.42,16.08,1.27,20.3,2.56,5,1.52,7.55,4,7.69,7.62l.46,11.82,91.67-.48-3.94-10.14c-4.74-12.17-15.27-19.58-31.54-23-15.22-3.22-43-4.81-83.4-4.86l.83-11-4.25,0-35.39.22-4.52,0-3.11,11c-37.88.78-65.72,3.1-83.83,7.06-19.48,4.25-33.39,11.71-41.76,23l-10,13.43c-8.4,11.33-5.48,20.25,9.84,26.2s49,11.08,101.76,15.2l-22.66,80.29q-24-1.42-32.72-6.31c-6.58-3.68-8.1-9.75-4.77-18l11.55-28.6-110,.39L1816.71,1990l1.88-24.9c71.34-1,121.57-8.79,149.35-22.64C1995.06,1928.89,2002.62,1908.74,1992.92,1884Zm-218.78-84.77q-15.37-1.07-22.47-3.89c-5.42-2.16-7.32-5.15-5.8-8.92l5-12.39c1.27-3.14,4.84-5.41,10.71-6.86q7.53-1.87,22.31-2.51Zm83.57,107.93q-10.55,4.38-35.2,6l5.59-74q19.11,2,28.24,5.85c7.17,3,11,7.49,11.23,13.45l1.56,33.51C1869.46,1898.72,1865.68,1903.82,1857.71,1907.13Z" transform="translate(-815.43 -1178.07)"/><path class="cls-8" d="M1376.84,1771.93c-80.56,24.36-138.51,55.63-163.47,90.65l-53.53-32.8c40.07-32.23,100-60.82,174.38-84Z" transform="translate(-815.43 -1178.07)"/><path class="cls-8" d="M1984,2143.82c-58.51,5.51-120.08,8.45-183.64,8.45-40.86,0-80.9-1.21-119.83-3.55l-133.11-81.53c76.87,10.87,162.57,16.94,252.94,16.94q42.42,0,83.34-1.74Z" transform="translate(-815.43 -1178.07)"/><path class="cls-8" d="M1691.71,1964.79c-59.13-1.75-98-8.56-116-20s-18.43-29.82-3.15-53Z" transform="translate(-815.43 -1178.07)"/><polygon class="cls-8" points="969.53 843.83 895.84 843.83 906.71 805.36 969.53 843.83"/><path class="cls-2" d="M1655.46,1907v205.51c-46.24,3.35-94.17,5.1-143.3,5.1a1919.61,1919.61,0,0,1-238.83-14.51V1897.61c74.49,9.4,154.93,14.51,238.83,14.51C1561.29,1912.12,1609.22,1910.37,1655.46,1907Z" transform="translate(-815.43 -1178.07)"/><path class="cls-2" d="M2208.65,1877.16c0,53.9-51.37,103.66-138.11,143.77V1815.49c80.57-37.2,130.67-82.72,137.53-132.15v184A84.58,84.58,0,0,1,2208.65,1877.16Z" transform="translate(-815.43 -1178.07)"/><path class="cls-3" d="M1273.33,1897.61v205.52c-267-33.65-457.65-122.13-457.65-226v-195h.42C828.44,1781.42,1015.22,1865.11,1273.33,1897.61Z" transform="translate(-815.43 -1178.07)"/><path class="cls-3" d="M1912.41,1868.5V2074c-75.9,18.43-162.94,31.77-257,38.55V1907C1749.46,1900.24,1836.5,1886.93,1912.41,1868.5Z" transform="translate(-815.43 -1178.07)"/><path class="cls-4" d="M2070.54,1815.49v205.44c-44.22,20.44-97.64,38.37-158.13,53.06V1868.5C1972.89,1853.83,2026.31,1835.92,2070.54,1815.49Z" transform="translate(-815.43 -1178.07)"/><path class="cls-5" d="M2075.44,1724.87l73.14,44.79a339.73,339.73,0,0,1-37.52,24.93l-73.22-44.84c-77.43,42.48-208.91,74.59-366.21,87.72l94.87,58.11q-34.49,4.68-70.69,8.09l-100.3-61.43q-40.86,1.73-83.35,1.75c-90.36,0-176.06-6.07-252.93-16.94l133.1,81.52c-321.8-19.25-567.91-114.7-576.65-230.55,2.36-31.32,22.07-61.15,55.94-88.38l53.54,32.79c25-35,82.91-66.28,163.46-90.65l-42.62-26.1q27.54-8.57,57.64-16.09l43.5,26.64c101.17-23.58,227.72-37.6,365-37.6q43.85,0,86.08,1.86l-59.42-36.39q42.06.54,82.77,2.78l64.53,39.53c49.72,4.57,96.72,11,140.07,19.15l-77.39-47.4c262.81,32.74,452.2,118.49,459.85,219.86-1.3,17.22-7.84,34-19.08,50.1l-79.66-48.8C2104.8,1695.19,2093,1710.46,2075.44,1724.87Z" transform="translate(-815.43 -1178.07)"/><path class="cls-6" d="M2112.8,1661.31a57.56,57.56,0,0,1-2,14.84c-12.17-42.74-80.44-81-184-108.94-46.57-12.56-100.25-23-159.2-30.86-30.16-4-61.7-7.33-94.37-9.89-51.27-4-105.31-6.18-161.12-6.18-116.27,0-224.83,9.33-316.79,25.49q-33,5.81-63.1,12.75c-85.2,19.67-150.91,45.83-187.71,75.79-16.31,13.28-26.93,27.3-31.08,41.84a57.56,57.56,0,0,1-2-14.84c0-13.34,4.71-26.35,13.64-38.88,25-35,82.91-66.28,163.46-90.65q27.57-8.33,58.52-15.55c101.17-23.58,227.72-37.6,365-37.6q43.85,0,86.08,1.86c30.07,1.32,59.43,3.31,87.88,5.92,49.72,4.57,96.72,11,140.07,19.15C1998.14,1537.7,2112.8,1595.43,2112.8,1661.31Z" transform="translate(-815.43 -1178.07)"/><path class="cls-7" d="M2110.84,1676.15c-.28,1.07-.59,2.12-.93,3.17-5.11,15.87-16.88,31.14-34.47,45.55a246.37,246.37,0,0,1-37.6,24.88c-77.43,42.48-208.91,74.59-366.21,87.72q-37.16,3.12-76.12,4.77-40.86,1.73-83.35,1.75c-90.36,0-176.06-6.07-252.93-16.94-191.36-27.07-328-83.87-345.75-150.9,4.15-14.54,14.77-28.56,31.08-41.84,36.8-30,102.51-56.12,187.71-75.79q30-6.93,63.1-12.75c92-16.16,200.52-25.49,316.79-25.49,55.81,0,109.85,2.15,161.12,6.18,32.67,2.56,64.2,5.88,94.37,9.89h0c58.94,7.84,112.63,18.3,159.19,30.86h0C2030.4,1595.13,2098.67,1633.41,2110.84,1676.15Z" transform="translate(-815.43 -1178.07)"/><path class="cls-8" d="M2208.89,1684.41c0,132.81-311.94,240.48-696.73,240.48s-696.73-107.67-696.73-240.48c0-2.14.08-4.26.25-6.39,9.79,129.87,317.88,234.1,696.48,234.1s686.69-104.23,696.49-234.1C2208.81,1680.15,2208.89,1682.27,2208.89,1684.41Z" transform="translate(-815.43 -1178.07)"/><path class="cls-8" d="M1826.19,1505.56c-43.35-8.1-90.35-14.58-140.07-19.15l-64.53-39.53c43.9,2.39,86.44,6.2,127.21,11.28Z" transform="translate(-815.43 -1178.07)"/><path class="cls-8" d="M2189.57,1728.12c-10,14.4-23.83,28.28-41,41.54l-73.14-44.79c17.59-14.41,29.36-29.68,34.47-45.55Z" transform="translate(-815.43 -1178.07)"/><path class="cls-5" d="M1317.75,1620.73l-10.27,0-18.2,23.94q-2.68,3.55-4.94,7l119.16,73q16,.46,33.92.45h1.63l-5.13,18.17,62.83,38.48h29.34l2.41-31.94Z" transform="translate(-815.43 -1178.07)"/><path class="cls-6" d="M1539.88,1647q19.13,2,28.25,5.85c4.88,2.07,8.19,4.8,9.89,8.21a13.29,13.29,0,0,0,2.9-9.25l-1.57-33.52c-.27-6-4-10.4-11.22-13.45q-9.12-3.88-28.25-5.85l-5.58,74c1.24-.08,2.45-.17,3.64-.27Z" transform="translate(-815.43 -1178.07)"/><path class="cls-6" d="M1473.38,1527c-5.87,1.45-9.45,3.72-10.71,6.86l-5,12.4c-1.52,3.77.38,6.76,5.8,8.91q7.07,2.82,22.47,3.9l9.76-34.58Q1480.9,1525.13,1473.38,1527Z" transform="translate(-815.43 -1178.07)"/><path class="cls-6" d="M1374.59,1577.75c-9-3.48-13.68-8-14.36-13.39l0,0v45.44c-.4,4.06,1.24,7.66,5,10.77l62.56-.22-11.54,28.6c-3.33,8.25-1.81,14.33,4.77,18a31.55,31.55,0,0,0,6.32,2.52l.45-1.11h-1.42l1.42-.14v-32q15.7,1.92,35.37,3.63l13.24-46.92C1423.65,1588.83,1390,1583.73,1374.59,1577.75Z" transform="translate(-815.43 -1178.07)"/><path class="cls-6" d="M1573.51,1534.44c-.14-3.59-2.71-6.11-7.68-7.62q-6.33-1.93-20.31-2.56l-3,39.53c52,4.19,88.21,9.24,108.06,15.22a101.13,101.13,0,0,1,15.05,5.8v-39l-91.67.47Z" transform="translate(-815.43 -1178.07)"/><path class="cls-6" d="M1439.06,1725.1h-1.64c-78.38.1-128.65-6.95-149.93-20.47-8.54-5.43-13.11-12.33-14-20.53l-.17-.09v46h0c.27,9.14,4.87,16.78,14.14,22.67,20.18,12.82,66.45,19.82,138,20.42Z" transform="translate(-815.43 -1178.07)"/><path class="cls-6" d="M1708.74,1663.28c0,16-9.4,29.21-29,39-27.78,13.85-78,21.61-149.34,22.63l-4.29,56.85h-103v48h103l4.29-56.85c71.33-1,121.56-8.79,149.34-22.64,19.13-9.53,28.52-22.37,29-37.81h0v-49.18Z" transform="translate(-815.43 -1178.07)"/><path class="cls-8" d="M1598.24,1480.49q-42.16-1.83-86.08-1.86c-137.3,0-263.85,14-365,37.6l-43.5-26.64c114.78-28.73,255.92-45.66,408.52-45.66q13.39,0,26.66.17Z" transform="translate(-815.43 -1178.07)"/><path class="cls-8" d="M2111.06,1794.59c-78.7,45.58-199.83,81.41-344.56,101l-94.87-58.11c157.3-13.13,288.78-45.24,366.21-87.72Z" transform="translate(-815.43 -1178.07)"/><path class="cls-8" d="M1704.71,1643.82l-12.89-32.92c-5.89-15-19.76-25.41-41.23-31.88-19.84-6-56.1-11-108-15.23l3-39.53q14,.63,20.31,2.56c5,1.51,7.55,4,7.69,7.62l.46,11.81,91.67-.47-4-10.14c-4.73-12.17-15.26-19.59-31.53-23-15.23-3.21-43-4.8-83.4-4.86l.83-11-4.25,0-35.4.22-4.51,0-3.11,11c-37.89.79-65.72,3.11-83.83,7.06-19.48,4.25-33.39,11.71-41.77,23l-10,13.43c-8.4,11.32-5.47,20.24,9.84,26.2s49.06,11.07,101.77,15.2l-22.66,80.29q-24-1.44-32.72-6.32c-6.58-3.67-8.11-9.75-4.77-18l11.55-28.61-110,.4,210.75,129.08,1.88-24.91c71.34-1,121.56-8.79,149.34-22.63C1706.84,1688.75,1714.4,1668.59,1704.71,1643.82Zm-218.78-84.77q-15.37-1.07-22.47-3.88c-5.42-2.16-7.32-5.15-5.8-8.92l5-12.4c1.26-3.14,4.84-5.41,10.71-6.86q7.53-1.86,22.31-2.51ZM1569.5,1667q-10.55,4.37-35.2,6l5.58-74q19.11,2,28.25,5.85c7.17,3.05,10.95,7.5,11.23,13.45l1.56,33.51C1581.24,1658.57,1577.46,1663.68,1569.5,1667Z" transform="translate(-815.43 -1178.07)"/><path class="cls-8" d="M1088.62,1531.78c-80.55,24.37-138.5,55.64-163.46,90.65l-53.54-32.79c40.08-32.23,100-60.83,174.38-84Z" transform="translate(-815.43 -1178.07)"/><path class="cls-8" d="M1695.81,1903.67c-58.51,5.51-120.09,8.45-183.65,8.45-40.85,0-80.9-1.21-119.83-3.55l-133.1-81.52c76.87,10.87,162.57,16.94,252.93,16.94q42.42,0,83.35-1.75Z" transform="translate(-815.43 -1178.07)"/><path class="cls-8" d="M1403.5,1724.65c-59.13-1.76-98-8.56-116-20-18.19-11.54-18.43-29.82-3.15-53Z" transform="translate(-815.43 -1178.07)"/><polygon class="cls-8" points="681.31 603.68 607.63 603.68 618.49 565.21 681.31 603.68"/><path class="cls-2" d="M1690.1,1641.17v205.51c-46.24,3.34-94.17,5.1-143.29,5.1A1919.66,1919.66,0,0,1,1308,1837.27V1631.75a1919.66,1919.66,0,0,0,238.84,14.51C1595.93,1646.26,1643.86,1644.5,1690.1,1641.17Z" transform="translate(-815.43 -1178.07)"/><path class="cls-2" d="M2243.29,1611.3c0,53.9-51.37,103.66-138.11,143.77V1549.63c80.58-37.2,130.67-82.72,137.53-132.15v184A84.75,84.75,0,0,1,2243.29,1611.3Z" transform="translate(-815.43 -1178.07)"/><path class="cls-3" d="M1308,1631.75v205.52c-267-33.65-457.65-122.13-457.65-226v-195h.42C863.09,1515.56,1049.86,1599.25,1308,1631.75Z" transform="translate(-815.43 -1178.07)"/><path class="cls-3" d="M1947.06,1602.64v205.49c-75.9,18.43-163,31.76-257,38.55V1641.17C1784.11,1634.38,1871.15,1621.07,1947.06,1602.64Z" transform="translate(-815.43 -1178.07)"/><path class="cls-4" d="M2105.18,1549.63v205.44c-44.22,20.44-97.63,38.37-158.12,53.06V1602.64C2007.54,1588,2061,1570.06,2105.18,1549.63Z" transform="translate(-815.43 -1178.07)"/><path class="cls-5" d="M2110.08,1459l73.14,44.79a340.51,340.51,0,0,1-37.51,24.93l-73.23-44.84c-77.43,42.48-208.91,74.59-366.21,87.72l94.88,58.11q-34.5,4.68-70.7,8.09l-100.3-61.43q-40.86,1.72-83.34,1.75c-90.37,0-176.07-6.07-252.94-16.94L1427,1642.71c-321.81-19.25-567.92-114.7-576.66-230.55,2.36-31.32,22.07-61.15,55.95-88.38l53.54,32.79c25-35,82.9-66.29,163.46-90.65l-42.62-26.1q27.52-8.57,57.64-16.1l43.5,26.65c101.16-23.58,227.71-37.6,365-37.6,29.22,0,58,.63,86.07,1.86l-59.42-36.39q42.07.54,82.77,2.78l64.54,39.53c49.71,4.57,96.71,11,140.07,19.15l-77.39-47.4c262.8,32.74,452.2,118.49,459.84,219.86-1.29,17.21-7.83,34-19.07,50.1l-79.67-48.8C2139.45,1429.33,2127.67,1444.59,2110.08,1459Z" transform="translate(-815.43 -1178.07)"/><path class="cls-6" d="M2147.44,1395.45a57.56,57.56,0,0,1-2,14.84c-12.17-42.74-80.43-81-184-108.94-46.56-12.56-100.25-23-159.19-30.86-30.17-4-61.71-7.33-94.37-9.9-51.28-4-105.31-6.17-161.12-6.17-116.27,0-224.84,9.33-316.79,25.49q-33,5.8-63.11,12.75c-85.19,19.67-150.91,45.83-187.71,75.79-16.31,13.27-26.93,27.3-31.07,41.84a57.56,57.56,0,0,1-2-14.84c0-13.34,4.7-26.35,13.64-38.88,25-35,82.9-66.29,163.46-90.65q27.56-8.34,58.52-15.55c101.16-23.58,227.71-37.6,365-37.6,29.22,0,58,.63,86.07,1.86,30.07,1.32,59.43,3.3,87.89,5.92,49.71,4.57,96.71,11,140.07,19.15C2032.78,1271.84,2147.44,1329.57,2147.44,1395.45Z" transform="translate(-815.43 -1178.07)"/><path class="cls-7" d="M2145.48,1410.29c-.28,1.07-.59,2.12-.93,3.17-5.1,15.87-16.88,31.13-34.47,45.55a246.37,246.37,0,0,1-37.6,24.88c-77.43,42.48-208.91,74.59-366.21,87.72q-37.15,3.12-76.12,4.77-40.86,1.72-83.34,1.75c-90.37,0-176.07-6.07-252.94-16.94-191.36-27.07-328-83.88-345.74-150.9,4.14-14.54,14.76-28.57,31.07-41.84,36.8-30,102.52-56.12,187.71-75.79q30-6.93,63.11-12.75c92-16.16,200.52-25.49,316.79-25.49,55.81,0,109.84,2.15,161.12,6.17,32.66,2.57,64.19,5.88,94.36,9.9h0c58.93,7.84,112.63,18.3,159.18,30.86h0C2065.05,1329.27,2133.31,1367.55,2145.48,1410.29Z" transform="translate(-815.43 -1178.07)"/><path class="cls-8" d="M2243.54,1418.55c0,132.81-311.94,240.47-696.73,240.47s-696.74-107.66-696.74-240.47c0-2.14.09-4.26.25-6.39,9.79,129.87,317.88,234.1,696.49,234.1s686.69-104.23,696.48-234.1C2243.45,1414.29,2243.54,1416.41,2243.54,1418.55Z" transform="translate(-815.43 -1178.07)"/><path class="cls-8" d="M1860.84,1239.7c-43.36-8.1-90.36-14.58-140.07-19.15L1656.23,1181c43.91,2.39,86.44,6.2,127.22,11.28Z" transform="translate(-815.43 -1178.07)"/><path class="cls-8" d="M2224.22,1462.26c-10,14.4-23.84,28.28-41,41.54L2110.08,1459c17.59-14.42,29.37-29.68,34.47-45.55Z" transform="translate(-815.43 -1178.07)"/><path class="cls-5" d="M1352.4,1354.87l-10.27,0-18.2,23.94c-1.8,2.36-3.45,4.69-5,7l119.16,73q16,.48,33.92.46h1.64l-5.13,18.17,62.82,38.48h29.34l2.41-32Z" transform="translate(-815.43 -1178.07)"/><path class="cls-6" d="M1574.53,1381.14q19.11,2,28.25,5.85c4.87,2.07,8.18,4.8,9.88,8.21a13.35,13.35,0,0,0,2.91-9.26l-1.57-33.51c-.28-6-4.06-10.4-11.22-13.45q-9.12-3.88-28.25-5.85l-5.59,74c1.24-.08,2.45-.17,3.64-.27Z" transform="translate(-815.43 -1178.07)"/><path class="cls-6" d="M1508,1261.13c-5.87,1.45-9.44,3.72-10.71,6.86l-5,12.4c-1.52,3.77.38,6.76,5.8,8.91q7.08,2.82,22.48,3.89l9.76-34.57Q1515.54,1259.26,1508,1261.13Z" transform="translate(-815.43 -1178.07)"/><path class="cls-6" d="M1409.23,1311.89c-9-3.48-13.67-8-14.36-13.39l0,0v45.44c-.4,4.06,1.24,7.66,5,10.77l62.57-.22-11.55,28.6c-3.33,8.25-1.81,14.33,4.77,18a32,32,0,0,0,6.33,2.52l.45-1.11H1461l1.42-.14v-31.95q15.69,1.92,35.36,3.63L1511,1327.1C1458.29,1323,1424.6,1317.87,1409.23,1311.89Z" transform="translate(-815.43 -1178.07)"/><path class="cls-6" d="M1608.16,1268.58c-.14-3.59-2.72-6.11-7.69-7.63q-6.33-1.92-20.3-2.56l-3,39.54c52,4.19,88.21,9.23,108.06,15.22a101.81,101.81,0,0,1,15,5.79v-39l-91.67.47Z" transform="translate(-815.43 -1178.07)"/><path class="cls-6" d="M1473.7,1459.24h-1.64c-78.38.1-128.65-7-149.93-20.48-8.54-5.42-13.11-12.33-14-20.52l-.17-.09v46h0c.27,9.14,4.87,16.78,14.14,22.66,20.18,12.83,66.45,19.83,138,20.43Z" transform="translate(-815.43 -1178.07)"/><path class="cls-6" d="M1743.38,1397.42c0,15.95-9.4,29.21-29,39-27.77,13.85-78,21.62-149.34,22.64l-4.29,56.85h-103v48h103l4.29-56.85c71.34-1,121.57-8.79,149.34-22.64,19.14-9.53,28.52-22.38,29-37.81h0v-49.18Z" transform="translate(-815.43 -1178.07)"/><path class="cls-8" d="M1632.88,1214.63c-28.1-1.23-56.85-1.86-86.07-1.86-137.31,0-263.86,14-365,37.6l-43.5-26.65c114.78-28.72,255.92-45.65,408.52-45.65q13.38,0,26.65.17Z" transform="translate(-815.43 -1178.07)"/><path class="cls-8" d="M2145.71,1528.73c-78.7,45.58-199.83,81.41-344.56,101l-94.88-58.11c157.3-13.13,288.78-45.24,366.21-87.72Z" transform="translate(-815.43 -1178.07)"/><path class="cls-8" d="M1739.35,1378,1726.46,1345c-5.89-15-19.75-25.41-41.22-31.89-19.85-6-56.11-11-108-15.22l3-39.53c9.3.42,16.08,1.26,20.3,2.56,5,1.51,7.55,4,7.69,7.61l.46,11.82,91.67-.47-3.94-10.14c-4.74-12.18-15.27-19.59-31.54-23-15.22-3.21-43-4.8-83.4-4.86l.83-11-4.25,0-35.39.22-4.52,0-3.11,11c-37.88.78-65.72,3.11-83.83,7.06-19.48,4.25-33.39,11.71-41.76,23l-10,13.44c-8.4,11.32-5.48,20.24,9.84,26.19s49,11.08,101.77,15.21l-22.67,80.29q-24-1.44-32.72-6.32c-6.58-3.67-8.1-9.75-4.77-18l11.55-28.6-110,.4,210.74,129.07L1565,1459c71.34-1,121.57-8.79,149.35-22.63C1741.49,1422.89,1749.05,1402.73,1739.35,1378Zm-218.78-84.77q-15.37-1.07-22.47-3.89c-5.42-2.15-7.32-5.14-5.8-8.92l5-12.39c1.27-3.14,4.84-5.41,10.71-6.86q7.53-1.86,22.31-2.51Zm83.57,107.94q-10.55,4.36-35.2,6l5.59-74q19.11,2,28.24,5.85c7.17,3,11,7.5,11.23,13.45l1.56,33.51C1615.89,1392.71,1612.11,1397.82,1604.14,1401.13Z" transform="translate(-815.43 -1178.07)"/><path class="cls-8" d="M1123.27,1265.92c-80.56,24.36-138.51,55.63-163.46,90.65l-53.54-32.79c40.07-32.24,100-60.83,174.38-84Z" transform="translate(-815.43 -1178.07)"/><path class="cls-8" d="M1730.45,1637.81c-58.5,5.51-120.08,8.45-183.64,8.45-40.86,0-80.9-1.21-119.83-3.55l-133.11-81.52c76.87,10.87,162.57,16.94,252.94,16.94q42.42,0,83.34-1.75Z" transform="translate(-815.43 -1178.07)"/><path class="cls-8" d="M1438.14,1458.78c-59.13-1.75-98-8.55-116-20s-18.43-29.82-3.15-53Z" transform="translate(-815.43 -1178.07)"/><polygon class="cls-8" points="715.96 337.82 642.27 337.82 653.14 299.35 715.96 337.82"/><path class="cls-2" d="M2793.25,2343.18l-159.57,129.51c-31.73-33.79-63.3-69.9-94.26-108.05a1918.27,1918.27,0,0,1-139.24-194.58l159.57-129.52A1919.92,1919.92,0,0,0,2699,2235.13C2730,2273.27,2761.52,2309.38,2793.25,2343.18Z" transform="translate(-815.43 -1178.07)"/><path class="cls-2" d="M3165.06,2753.87c-41.86,34-112.86,25.45-198.67-16.63l159.51-129.47c79.66,39.12,146.58,49.34,189.28,23.51l-142.86,115.95A84.52,84.52,0,0,1,3165.06,2753.87Z" transform="translate(-815.43 -1178.07)"/><path class="cls-3" d="M2559.75,2040.54l-159.57,129.52c-142.15-228.53-193.59-432.3-113-497.74l151.42-122.91.27.33C2369.6,1621.89,2422.32,1819.65,2559.75,2040.54Z" transform="translate(-815.43 -1178.07)"/><path class="cls-3" d="M2985.09,2518.41,2825.54,2647.9c-62.14-47.31-127.34-106.49-191.86-175.21l159.57-129.51C2857.76,2411.89,2923,2471.08,2985.09,2518.41Z" transform="translate(-815.43 -1178.07)"/><path class="cls-4" d="M3125.9,2607.77l-159.51,129.47c-43.73-21.45-91.32-51.63-140.85-89.34l159.55-129.49C3034.6,2556.12,3082.17,2586.31,3125.9,2607.77Z" transform="translate(-815.43 -1178.07)"/><path class="cls-5" d="M3199.35,2554.47l11.32,85a338.83,338.83,0,0,1-43-13.41L3156.34,2541c-81.78-33.35-189.57-115.21-298.89-229.06l14.67,110.28q-25.36-23.83-50.83-49.79l-15.52-116.59q-27.09-30.63-53.88-63.61c-56.94-70.16-106.24-140.53-146.24-207.06l20.58,154.72c-187.85-262-268.84-513.24-184.4-593,25.81-17.9,61.39-21.4,103.89-12.26l8.27,62.24c42.92-2.7,103.72,22.6,173.4,69.79L2720.8,1617q24,16,48.82,34.62l6.73,50.56c82.06,63.69,172.69,153.12,259.22,259.72q27.63,34.05,52.8,68l-9.19-69.07q26.09,33,50,66l10,75c27.79,41.48,52.37,82,73.4,120.82l-12-90c140.19,224.69,193,425.78,119.07,495.6-14.18,9.84-31.31,15.32-50.91,16.76l-12.32-92.61C3240.91,2558.57,3221.63,2559,3199.35,2554.47Z" transform="translate(-815.43 -1178.07)"/><path class="cls-6" d="M3272.25,2543.43a57.61,57.61,0,0,1-12.76,7.83c25.51-36.39,12.22-113.52-31.37-211.51-19.59-44.07-45.3-92.35-76.36-143.05-15.89-26-33.19-52.54-51.79-79.52-29.18-42.35-61.56-85.66-96.74-129-73.27-90.28-148.93-168.69-219.43-229.91q-25.32-22-49.66-41c-69-53.75-130.69-88.28-177.15-98-20.58-4.29-38.16-3.7-52.07,2.24a57.7,57.7,0,0,1,10.29-10.87c10.36-8.41,23.43-13,38.78-13.91,42.92-2.7,103.72,22.6,173.4,69.79q23.84,16.14,49,35.63c82.06,63.69,172.69,153.12,259.22,259.72q27.63,34.05,52.8,68,26.9,36.27,50.79,72c27.79,41.48,52.37,82,73.4,120.82C3296,2376.5,3323.4,2501.91,3272.25,2543.43Z" transform="translate(-815.43 -1178.07)"/><path class="cls-7" d="M3259.49,2551.26c-1,.45-2,.87-3,1.27-15.53,6-34.81,6.51-57.09,1.94a245.8,245.8,0,0,1-43-13.51c-81.78-33.35-189.57-115.21-298.89-229.06q-25.85-26.9-51.68-56.1-27.09-30.63-53.88-63.61c-56.94-70.16-106.24-140.53-146.24-207.06-99.58-165.64-141.6-307.55-100.73-363.55,13.91-5.94,31.49-6.53,52.07-2.24,46.46,9.7,108.18,44.23,177.15,98q24.29,18.95,49.66,41c70.5,61.22,146.16,139.63,219.43,229.91,35.18,43.33,67.56,86.64,96.74,129q27.9,40.47,51.79,79.51h0c31.06,50.69,56.77,99,76.36,143h0C3271.71,2437.74,3285,2514.87,3259.49,2551.26Z" transform="translate(-815.43 -1178.07)"/><path class="cls-8" d="M3314.87,2632.59c-103.12,83.7-383.3-90.65-625.79-389.42s-355.48-608.82-252.36-692.52q2.49-2,5.11-3.83c-94.66,89.45,18.57,394.34,257.16,688.31s513.68,467.48,620.68,393.25C3318.13,2629.84,3316.53,2631.25,3314.87,2632.59Z" transform="translate(-815.43 -1178.07)"/><path class="cls-8" d="M3212.56,2222.74c-21-38.77-45.61-79.34-73.4-120.82l-10-75c25.81,35.59,49.67,71,71.42,105.88Z" transform="translate(-815.43 -1178.07)"/><path class="cls-8" d="M3268.76,2645.14c-17.51,1.28-37-.69-58.09-5.66l-11.32-85c22.28,4.57,41.56,4.1,57.09-1.94Z" transform="translate(-815.43 -1178.07)"/><path class="cls-5" d="M2802.72,1900.55l-6.49-8-30.06,1c-3,.09-5.81.28-8.51.54l18.42,138.52q9.71,12.71,21,26.62l1,1.27-17.34,7.47,9.71,73,18.49,22.78,26.33-18.26Z" transform="translate(-815.43 -1178.07)"/><path class="cls-6" d="M2922.31,2089.57q10.5,16.09,13.26,25.62,2.2,7.65-.14,12.85a13.32,13.32,0,0,0,9-3.57l25-22.34c4.45-4,5.52-9.71,3.37-17.19q-2.74-9.53-13.26-25.62l-61,42.31,2.51,2.66Z" transform="translate(-815.43 -1178.07)"/><path class="cls-6" d="M2973.58,1962.31c-4.83-3.64-8.84-5-12.07-4l-12.79,3.93c-3.88,1.19-5,4.55-3.27,10.12q2.28,7.26,11.15,19.9l33-14.21Q2979.77,1967,2973.58,1962.31Z" transform="translate(-815.43 -1178.07)"/><path class="cls-6" d="M2871.91,1917.59c-2.94-9.15-2.42-15.65,1.35-19.59v0L2838,1926.61c-3.4,2.24-5.16,5.78-5.22,10.65l39.6,48.44-29.48,9.06c-8.5,2.61-12.26,7.63-11,15a31.29,31.29,0,0,0,2,6.5l1.15-.35-.9-1.1,1,1,24.81-20.13q8.41,13.38,19.47,29.74l44.78-19.28C2894.23,1962.66,2877,1933.29,2871.91,1917.59Z" transform="translate(-815.43 -1178.07)"/><path class="cls-6" d="M3030.9,2044.75c2.7-2.37,3-6,1.08-10.77q-2.49-6.13-10.81-17.38l-32.58,22.59c29.49,43,48.42,74.32,56.28,93.5a101,101,0,0,1,5,15.34l30.3-24.6L3022,2052.55Z" transform="translate(-815.43 -1178.07)"/><path class="cls-6" d="M2798.13,2060.51l-1-1.28c-49.47-60.79-75.68-104.27-78.59-129.31-1.17-10.05,1.31-18,7.12-23.8l0-.19-35.69,29h0c-6.93,6-10,14.35-8.69,25.26,2.77,23.76,26.49,64.09,71.13,120Z" transform="translate(-815.43 -1178.07)"/><path class="cls-6" d="M3016.09,2230.94c-12.41,10-28.61,11.11-48.56,2-28.26-12.83-66-46.94-111.69-101.68L2809,2163.78l-6.26-7.7-52.44-64.61-.22-.29-6-7.39h0l-37.27,30.26h0l6.23,7.67,52.44,64.61,2.55,3.15,3.7,4.56,46.85-32.5c45.74,54.75,83.43,88.85,111.69,101.69,19.46,8.85,35.35,8,47.63-1.32l0,0,38.2-31Z" transform="translate(-815.43 -1178.07)"/><path class="cls-8" d="M3088.37,2030q-25.14-33.9-52.8-68c-86.53-106.6-177.16-196-259.22-259.72l-6.73-50.56c94.64,71,196.73,169.93,292.9,288.41q8.43,10.41,16.66,20.81Z" transform="translate(-815.43 -1178.07)"/><path class="cls-8" d="M3167.67,2626.07c-85-32.38-189.14-103.85-295.55-203.89l-14.67-110.28c109.32,113.85,217.11,195.71,298.89,229.06Z" transform="translate(-815.43 -1178.07)"/><path class="cls-8" d="M3028.65,2215.55l17.44-30.75c8-14.07,7.28-31.36-1.22-52.11-7.86-19.18-26.79-50.52-56.27-93.49l32.57-22.6q8.31,11.24,10.8,17.38c2,4.81,1.63,8.4-1.06,10.77l-8.89,7.81,58.14,70.87,5.39-9.45c6.46-11.35,5.58-24.2-2-39-7.11-13.85-23.35-36.39-48.79-67.82l9.06-6.28-2.7-3.28-22.48-27.34-2.86-3.49-10.53,4.53c-24.48-28.92-43.83-49.07-58.31-60.64-15.57-12.45-30.13-18.54-44.17-17.94l-16.72.72c-14.09.61-19.17,8.5-14.14,24.15s22.31,45.06,52.33,88.6l-76.62,33q-14-19.52-15.72-29.39c-1.29-7.42,2.47-12.44,11-15l29.48-9.06-69.63-85.16,32.6,245,20.52-14.23c45.74,54.75,83.43,88.85,111.68,101.69C2995.12,2245.51,3015.53,2238.69,3028.65,2215.55Zm-72.05-223.29q-8.86-12.62-11.15-19.9c-1.74-5.57-.62-8.93,3.27-10.12l12.78-3.93q4.86-1.49,12.08,4,6.2,4.67,16,15.74Zm-31.14,132.9q-10-5.43-26.86-23.53l61-42.31q10.52,16.08,13.27,25.62c2.15,7.48,1.07,13.22-3.37,17.19l-25,22.33C2939.39,2129,2933,2129.26,2925.46,2125.16Z" transform="translate(-815.43 -1178.07)"/><path class="cls-8" d="M2727.39,1666.59c-69.68-47.19-130.48-72.49-173.4-69.79l-8.27-62.24c50.28,10.8,110.22,39.28,175.08,82.48Z" transform="translate(-815.43 -1178.07)"/><path class="cls-8" d="M2821.29,2372.39c-41.15-41.95-82.24-87.91-122.3-137.26q-38.62-47.6-72.76-95.28l-20.58-154.72c40,66.53,89.3,136.9,146.24,207.06q26.74,32.94,53.88,63.61Z" transform="translate(-815.43 -1178.07)"/><path class="cls-8" d="M2776.08,2032.61c-35.9-47-55.1-81.46-57.57-102.69-2.49-21.4,11.54-33.11,39.15-35.83Z" transform="translate(-815.43 -1178.07)"/><polygon class="cls-8" points="1975.07 962.93 1928.63 905.72 1965.36 889.91 1975.07 962.93"/></g></svg>