<svg xmlns="http://www.w3.org/2000/svg" viewBox="0 0 2878.7 1756.62" xmlns:v="https://vecta.io/nano"><style><![CDATA[.I{fill:#ffc515}.J{fill:#c9840a}.K{fill:#ffe755}.L{fill:#ecaf12}.M{fill:#f9be15}.N{fill:#ffd800}.O{fill:#efa90c}]]></style><ellipse cx="2279.69" cy="2596.93" rx="1414.48" ry="337.63" transform="matrix(.999976 -.006981 .006981 .999976 -833.37 -1162.21)" fill="#58595b" opacity=".25"/><path d="M862.17 1433.26v205.51c-46.24 3.34-94.18 5.09-143.3 5.09a1919.61 1919.61 0 0 1-238.83-14.51v-205.52a1917.63 1917.63 0 0 0 238.83 14.52c49.12 0 97.06-1.76 143.3-5.09zm553.18-29.88c0 53.91-51.36 103.67-138.11 143.77v-205.43c80.58-37.2 130.68-82.72 137.54-132.15v184a84.57 84.57 0 0 1 .57 9.81z" class="L"/><path d="M480.04 1423.83v205.52c-267-33.65-457.65-122.12-457.65-226v-195h.42c12.34 99.3 199.12 182.99 457.23 215.48zm639.08-29.1v205.49c-75.9 18.43-162.94 31.76-257 38.55v-205.51c94.05-6.79 181.09-20.11 257-38.53z" class="M"/><path d="M1277.24 1341.72v205.43c-44.21 20.44-97.63 38.37-158.12 53.07v-205.49c60.45-14.68 113.9-32.59 158.12-53.01z" class="N"/><path d="M1282.14 1251.09l73.14 44.8a341 341 0 0 1-37.51 24.93l-73.2-44.89c-77.43 42.49-208.91 74.59-366.21 87.73l94.87 58.11q-34.48 4.66-70.7 8.09l-100.3-61.43c-27.23 1.15-55.06 1.74-83.34 1.74-90.36 0-176.06-6.07-252.93-16.94l133.1 81.53c-321.8-19.25-567.92-114.7-576.65-230.55 2.36-31.32 22.07-61.15 55.94-88.39l53.54 32.8c25-35 82.91-66.29 163.46-90.65l-42.64-26.04q27.54-8.56 57.64-16.09l43.5 26.64c101.17-23.58 227.72-37.59 365-37.59q43.85 0 86.08 1.86l-59.42-36.4q42.06.56 82.77 2.79l64.53 39.53c49.72 4.56 96.72 11 140.07 19.15l-77.39-47.41c262.81 32.75 452.2 118.5 459.84 219.87-1.29 17.21-7.83 34-19.07 50.1l-79.66-48.8c-5.09 15.83-16.87 31.1-34.46 45.51z" class="I"/><path d="M1319.51 1187.54a57.56 57.56 0 0 1-2 14.84c-12.17-42.74-80.44-81-184-108.94-46.57-12.56-100.26-23-159.2-30.86-30.16-4-61.71-7.34-94.37-9.9-51.27-4-105.31-6.18-161.12-6.18-116.27 0-224.83 9.33-316.79 25.49-22 3.87-43.1 8.13-63.1 12.75-85.2 19.68-150.91 45.83-187.72 75.79-16.3 13.28-26.93 27.3-31.07 41.85a57.56 57.56 0 0 1-2-14.84c0-13.34 4.7-26.36 13.64-38.88 25-35 82.91-66.29 163.46-90.65 18.37-5.56 37.92-10.76 58.52-15.56 101.17-23.58 227.72-37.59 365-37.59q43.85 0 86.08 1.86c30.07 1.32 59.43 3.3 87.88 5.92 49.72 4.56 96.72 11 140.07 19.15 172.05 32.14 286.72 89.86 286.72 155.75z" class="J"/><path d="M1317.57 1202.38l-.93 3.17c-5.11 15.86-16.89 31.13-34.48 45.54a246.25 246.25 0 0 1-37.59 24.84c-77.43 42.49-208.91 74.59-366.21 87.73q-37.17 3.11-76.13 4.77c-27.23 1.15-55.06 1.74-83.34 1.74-90.36 0-176.06-6.07-252.93-16.94-191.36-27.06-328-83.87-345.75-150.89 4.14-14.55 14.77-28.57 31.07-41.85 36.81-30 102.52-56.11 187.72-75.79 20-4.62 41.08-8.88 63.1-12.75 92-16.16 200.52-25.49 316.79-25.49 55.81 0 109.85 2.15 161.12 6.18 32.66 2.56 64.2 5.88 94.36 9.9h0c58.94 7.83 112.63 18.3 159.19 30.86h0c103.55 27.96 171.82 66.24 184.01 108.98z" class="O"/><g class="K"><path d="M1415.57 1210.63c0 132.82-311.94 240.48-696.73 240.48s-696.7-107.66-696.7-240.48q0-3.19.25-6.38c9.79 129.87 317.87 234.1 696.48 234.1s686.69-104.23 696.48-234.1q.22 3.18.22 6.38zm-382.67-178.84c-43.35-8.11-90.35-14.59-140.07-19.15l-64.53-39.53c43.9 2.39 86.44 6.19 127.21 11.27z"/><path d="M1396.28 1254.35c-10 14.39-23.83 28.28-41 41.54l-73.14-44.8c17.59-14.41 29.37-29.68 34.48-45.54z"/></g><path d="M524.46 1146.93h-10.27l-18.2 23.94-4.94 6.95 119.16 73q16 .46 33.91.45h1.64l-5.13 18.18 62.82 38.48h29.35l2.41-32z" class="I"/><path d="M746.57 1173.23q19.11 2 28.25 5.84c4.88 2.08 8.18 4.8 9.89 8.21a13.26 13.26 0 0 0 2.9-9.25l-1.57-33.51c-.28-6-4-10.41-11.22-13.45q-9.12-3.88-28.25-5.85l-5.59 74 3.65-.27zm-66.48-120.02c-5.87 1.46-9.45 3.73-10.72 6.86l-5 12.4c-1.52 3.77.38 6.76 5.8 8.92q7.07 2.8 22.47 3.89l9.76-34.57q-14.83.65-22.31 2.5zm-98.79 50.77c-9-3.49-13.68-8-14.37-13.39h0v45.44c-.4 4.05 1.24 7.66 5 10.77l62.57-.22-11.55 28.6c-3.33 8.25-1.81 14.32 4.78 18a31.28 31.28 0 0 0 6.32 2.53l.45-1.11h-1.42l1.42-.14v-31.95q15.69 1.9 35.36 3.62l13.25-46.91c-52.76-4.16-86.45-9.29-101.81-15.24zm198.92-43.32c-.14-3.58-2.72-6.1-7.69-7.62q-6.33-1.93-20.3-2.56l-3 39.53c51.94 4.19 88.21 9.24 108 15.23a99.64 99.64 0 0 1 15 5.79v-39l-91.67.48zm-134.45 190.66h-1.65c-78.38.09-128.64-7-149.93-20.48-8.53-5.42-13.1-12.33-14-20.52l-.17-.09v46h0c.26 9.13 4.86 16.77 14.13 22.66 20.19 12.82 66.46 19.82 138 20.43zm269.68-61.82c0 16-9.4 29.21-29 39-27.78 13.85-78 21.62-149.34 22.64l-4.29 56.85h-103v48h103l4.29-56.86c71.33-1 121.56-8.78 149.34-22.63 19.13-9.54 28.52-22.38 29-37.81h0v-49.2z" class="J"/><path d="M804.95 1006.72q-42.17-1.85-86.08-1.86c-137.3 0-263.85 14-365 37.59l-43.5-26.64c114.78-28.73 255.92-45.66 408.52-45.66q13.4 0 26.66.17zm512.82 314.1c-78.7 45.58-199.83 81.4-344.56 101l-94.87-58.11c157.3-13.14 288.78-45.24 366.21-87.73zm-406.35-150.77l-12.85-32.92c-5.9-15-19.76-25.42-41.23-31.89-19.85-6-56.11-11-108-15.23l3-39.53c9.31.42 16.09 1.27 20.3 2.56 5 1.52 7.55 4 7.69 7.62l.47 11.82 91.67-.48-4-10.14c-4.73-12.17-15.27-19.58-31.53-23-15.23-3.21-43-4.8-83.4-4.85l.83-11h-4.25l-35.4.23h-4.51l-3.11 11c-37.89.78-65.73 3.1-83.84 7.06-19.47 4.25-33.38 11.71-41.76 23l-10 13.43c-8.4 11.33-5.48 20.25 9.84 26.2s49 11.08 101.77 15.2l-22.66 80.29q-24-1.42-32.72-6.31c-6.59-3.68-8.11-9.76-4.77-18l11.54-28.6-110 .39 210.75 129.08 1.88-24.9c71.33-1 121.56-8.79 149.34-22.64 27.1-13.51 34.64-33.62 24.95-58.39zm-218.78-84.77c-10.25-.71-17.76-2-22.48-3.89-5.41-2.16-7.32-5.15-5.79-8.92l5-12.39c1.27-3.14 4.85-5.41 10.72-6.86q7.51-1.87 22.31-2.52zm83.57 107.93q-10.56 4.38-35.2 6l5.58-74q19.11 2 28.25 5.85c7.16 3 10.94 7.49 11.22 13.45l1.57 33.51c.32 6.78-3.46 11.91-11.42 15.19zm-480.88-135.2c-80.55 24.36-138.51 55.63-163.46 90.65l-53.54-32.8c40.07-32.23 100-60.82 174.38-84zm607.18 371.92c-58.5 5.5-120.08 8.45-183.64 8.45-40.86 0-80.9-1.22-119.83-3.55l-133.1-81.53c76.87 10.87 162.57 16.94 252.93 16.94 28.28 0 56.11-.59 83.34-1.74zm-292.3-179.06c-59.13-1.75-98-8.56-116-20s-18.43-29.82-3.14-53zm93.24 57.11h-73.68l10.86-38.48 62.82 38.48z" class="K"/><path d="M1128.24 1188.01v205.51c-46.24 3.35-94.17 5.1-143.29 5.1a1919.66 1919.66 0 0 1-238.84-14.51v-205.52c74.49 9.4 154.93 14.51 238.84 14.51 49.12 0 97.05-1.75 143.29-5.09zm553.19-29.87c0 53.9-51.37 103.66-138.11 143.77v-205.44c80.58-37.2 130.67-82.71 137.53-132.14v184a84.58 84.58 0 0 1 .58 9.81z" class="L"/><path d="M746.11 1178.59v205.52c-267-33.65-457.65-122.13-457.65-226v-195h.42c12.35 99.29 199.12 182.98 457.23 215.48zm639.08-29.1v205.44c-75.89 18.43-162.94 31.77-256.95 38.55v-205.47c94.01-6.78 181.05-20.08 256.95-38.52z" class="M"/><path d="M1543.32 1096.47v205.46c-44.22 20.44-97.63 38.37-158.13 53.06v-205.5c60.49-14.68 113.9-32.56 158.13-53.02z" class="N"/><path d="M1548.22 1005.85l73.14 44.79a340.51 340.51 0 0 1-37.51 24.93l-73.23-44.84c-77.43 42.49-208.91 74.59-366.21 87.72l94.87 58.12q-34.49 4.67-70.69 8.08l-100.3-61.43q-40.86 1.74-83.34 1.75c-90.37 0-176.07-6.07-252.94-16.94l133.11 81.52c-321.81-19.24-567.92-114.69-576.66-230.54 2.36-31.32 22.07-61.15 55.95-88.39l53.53 32.8c25-35 82.91-66.29 163.46-90.65l-42.61-26.11q27.52-8.57 57.64-16.09l43.5 26.64c101.16-23.58 227.71-37.6 365-37.6a1985.08 1985.08 0 0 1 86.07 1.86l-59.43-36.39q42.08.54 82.77 2.79l64.54 39.53c49.71 4.56 96.71 11 140.07 19.14l-77.39-47.4c262.8 32.74 452.2 118.49 459.84 219.87-1.29 17.21-7.83 34-19.07 50.09l-79.67-48.79c-5.09 15.86-16.85 31.13-34.44 45.54z" class="I"/><path d="M1585.57 942.3a57.67 57.67 0 0 1-2 14.84c-12.17-42.75-80.43-81-184-108.94-46.56-12.56-100.25-23-159.19-30.86-30.17-4-61.71-7.34-94.37-9.9-51.28-4-105.31-6.18-161.12-6.18-116.28 0-224.84 9.33-316.8 25.49q-33 5.81-63.1 12.75c-85.19 19.67-150.91 45.83-187.71 75.79-16.31 13.28-26.93 27.3-31.07 41.85a57.67 57.67 0 0 1-2-14.84c0-13.35 4.7-26.36 13.63-38.88 25-35 82.91-66.29 163.46-90.65q27.57-8.34 58.53-15.56c101.16-23.58 227.71-37.6 365-37.6a1985.08 1985.08 0 0 1 86.07 1.86c30.07 1.32 59.43 3.31 87.89 5.93 49.71 4.56 96.71 11 140.07 19.14 172.06 32.14 286.71 89.87 286.71 155.76z" class="J"/><path d="M1583.62 957.14l-.93 3.17c-5.1 15.86-16.88 31.13-34.47 45.54a246.37 246.37 0 0 1-37.6 24.88c-77.43 42.49-208.91 74.59-366.21 87.72q-37.15 3.12-76.12 4.77-40.86 1.74-83.34 1.75c-90.37 0-176.07-6.07-252.94-16.94-191.36-27.06-328-83.87-345.74-150.89 4.14-14.55 14.76-28.57 31.07-41.85 36.8-30 102.52-56.12 187.71-75.79q30-6.93 63.1-12.75c92-16.16 200.52-25.49 316.8-25.49 55.81 0 109.84 2.15 161.12 6.18 32.66 2.56 64.19 5.88 94.36 9.9h0c58.93 7.83 112.63 18.3 159.18 30.86h0c103.58 27.91 171.84 66.19 184.01 108.94z" class="O"/><g class="K"><path d="M1681.68 965.39c0 132.81-311.94 240.48-696.73 240.48S288.21 1098.2 288.21 965.39a84.82 84.82 0 0 1 .25-6.38c9.79 129.86 317.88 234.09 696.49 234.09s686.69-104.23 696.48-234.09c.14 2.12.25 4.25.25 6.38zm-382.7-178.85c-43.36-8.1-90.36-14.58-140.07-19.14l-64.54-39.53c43.91 2.38 86.44 6.19 127.22 11.27z"/><path d="M1662.36 1009.1c-10 14.4-23.84 28.28-41 41.54l-73.14-44.79c17.59-14.41 29.37-29.68 34.47-45.54z"/></g><path d="M790.57 901.71H780.3l-18.2 23.94q-2.7 3.55-5 7l119.16 73q16 .47 33.92.45h1.64l-5.13 18.18 62.88 38.45h29.34l2.41-31.94z" class="I"/><path d="M1012.67 927.98q19.11 2 28.25 5.85c4.87 2.08 8.18 4.8 9.88 8.21a13.33 13.33 0 0 0 2.91-9.25l-1.57-33.52c-.28-6-4.06-10.4-11.22-13.45q-9.13-3.87-28.25-5.85l-5.59 74 3.64-.26zm-66.51-120.05c-5.87 1.46-9.44 3.73-10.71 6.86l-5 12.4c-1.52 3.77.38 6.76 5.8 8.92q7.08 2.8 22.48 3.89l9.76-34.58q-14.81.69-22.33 2.51zm-98.79 50.81c-9-3.49-13.67-8-14.36-13.4h0v45.45c-.4 4 1.24 7.65 5 10.77l62.56-.23-11.54 28.6c-3.33 8.25-1.81 14.33 4.77 18a30.84 30.84 0 0 0 6.33 2.52l.44-1.11h-1.41l1.41-.14v-32q15.7 1.92 35.37 3.63l13.24-46.92c-52.75-4.1-86.44-9.2-101.81-15.17zm198.93-43.32c-.14-3.58-2.72-6.1-7.69-7.62q-6.33-1.93-20.3-2.56l-3 39.53c52 4.19 88.21 9.24 108.06 15.22a100.71 100.71 0 0 1 15 5.8v-39l-91.67.47zm-134.46 190.66h-1.64c-78.38.1-128.65-7-149.93-20.47-8.54-5.42-13.11-12.33-14-20.53l-.17-.09v46h0c.27 9.14 4.87 16.78 14.14 22.67 20.18 12.82 66.45 19.82 138 20.42zm269.73-61.82c0 16-9.4 29.21-29 39-27.77 13.85-78 21.62-149.34 22.63l-4.29 56.86h-103v48h103l4.29-56.86c71.34-1 121.57-8.78 149.34-22.63 19.14-9.54 28.52-22.38 29-37.81h0v-49.2z" class="J"/><path d="M1071.02 761.47c-28.1-1.22-56.85-1.86-86.07-1.86-137.31 0-263.86 14-365 37.6l-43.5-26.64c114.78-28.73 255.92-45.66 408.52-45.66q13.38 0 26.65.17zm512.83 314.1c-78.7 45.59-199.83 81.41-344.57 101l-94.87-58.12c157.3-13.13 288.78-45.23 366.21-87.72zM1177.49 924.8l-12.92-32.87c-5.89-15.05-19.75-25.42-41.22-31.89-19.85-6-56.11-11-108-15.23l3-39.53c9.3.42 16.08 1.27 20.3 2.56 5 1.52 7.55 4 7.69 7.62l.46 11.82 91.67-.48-3.94-10.14c-4.74-12.17-15.27-19.58-31.54-23-15.22-3.21-43-4.8-83.4-4.86l.83-11h-4.25l-35.39.22h-4.52l-3.11 11c-37.88.78-65.72 3.1-83.83 7-19.48 4.25-33.39 11.71-41.76 23l-10 13.43c-8.4 11.32-5.48 20.24 9.84 26.2s49 11.07 101.76 15.2l-22.66 80.29q-24-1.44-32.72-6.32c-6.58-3.67-8.1-9.75-4.77-18l11.55-28.6-110 .39 210.74 129.08 1.88-24.91c71.34-1 121.57-8.78 149.35-22.63 27.1-13.42 34.66-33.57 24.96-58.35zm-218.78-84.77c-10.25-.7-17.75-2-22.47-3.88-5.42-2.16-7.32-5.15-5.8-8.92l5-12.4q1.9-4.7 10.71-6.86 7.53-1.86 22.31-2.51zm83.57 107.9q-10.55 4.38-35.2 6l5.59-74q19.11 2 28.24 5.84c7.17 3.05 11 7.5 11.23 13.45l1.56 33.51c.33 6.82-3.45 11.93-11.42 15.2zM561.4 812.77c-80.55 24.36-138.5 55.63-163.46 90.65l-53.53-32.8c40.07-32.23 100-60.83 174.38-84zm607.17 371.88c-58.51 5.51-120.08 8.45-183.64 8.45-40.86 0-80.9-1.21-119.83-3.55l-133.11-81.52c76.89 10.9 162.58 16.9 252.96 16.9q42.42 0 83.34-1.75zm-292.29-179.02c-59.13-1.76-98-8.56-116-20s-18.43-29.82-3.15-53zm93.25 57.11h-73.69l10.87-38.48 62.82 38.48z" class="K"/><path d="M1128.24 969.11v205.51c-46.24 3.34-94.17 5.1-143.29 5.1a1919.6 1919.6 0 0 1-238.84-14.52V959.69a1919.66 1919.66 0 0 0 238.84 14.51c49.12 0 97.05-1.76 143.29-5.09zm553.19-29.87c0 53.9-51.37 103.66-138.11 143.76V877.57c80.58-37.2 130.67-82.72 137.53-132.15v184a84.62 84.62 0 0 1 .58 9.82z" class="L"/><path d="M746.11 959.69v205.51c-267-33.65-457.65-122.12-457.65-226v-195h.42C301.23 843.5 488 927.19 746.11 959.69zm639.08-29.11v205.49c-75.89 18.43-162.94 31.76-256.95 38.55V969.11c94.01-6.79 181.05-20.11 256.95-38.53z" class="M"/><path d="M1543.32 877.57V1083c-44.22 20.45-97.63 38.37-158.13 53.07V930.58c60.49-14.65 113.9-32.59 158.13-53.01z" class="N"/><path d="M1548.22 786.93l73.14 44.8a341.94 341.94 0 0 1-37.51 24.93l-73.23-44.85c-77.43 42.49-208.91 74.59-366.21 87.73l94.88 58.11q-34.5 4.67-70.7 8.09l-100.3-61.43q-40.86 1.72-83.34 1.74c-90.37 0-176.07-6.07-252.94-16.94l133.11 81.53c-321.81-19.25-567.92-114.7-576.66-230.55 2.36-31.32 22.07-61.15 55.95-88.39l53.53 32.8c25-35 82.91-66.29 163.47-90.65l-42.62-26.11q27.52-8.55 57.64-16.09l43.5 26.64c101.16-23.58 227.71-37.59 365-37.59 29.22 0 58 .63 86.07 1.86l-59.43-36.38q42.08.54 82.77 2.78l64.54 39.53c49.71 4.56 96.71 11 140.07 19.15l-77.38-47.41c262.8 32.75 452.2 118.5 459.84 219.87-1.29 17.21-7.83 34-19.07 50.1l-79.67-48.8c-5.1 15.86-16.86 31.13-34.45 45.53z" class="I"/><path d="M1585.57 723.39a57.56 57.56 0 0 1-2 14.84c-12.17-42.74-80.43-81-184-108.94-46.56-12.56-100.25-23-159.19-30.86-30.17-4-61.71-7.34-94.37-9.9-51.28-4-105.31-6.18-161.12-6.18-116.28 0-224.84 9.34-316.8 25.49q-33 5.8-63.1 12.75c-85.19 19.68-150.91 45.83-187.71 75.79-16.31 13.28-26.93 27.31-31.07 41.85a57.56 57.56 0 0 1-2-14.84c0-13.34 4.7-26.35 13.63-38.88 25-35 82.91-66.29 163.47-90.65q27.56-8.34 58.52-15.56c101.16-23.58 227.71-37.59 365-37.59 29.22 0 58 .63 86.07 1.86 30.07 1.32 59.43 3.3 87.89 5.92 49.71 4.56 96.71 11 140.07 19.15 172.06 32.13 286.71 89.86 286.71 155.75z" class="J"/><path d="M1583.62 738.23l-.93 3.17c-5.1 15.86-16.88 31.13-34.47 45.54a244.89 244.89 0 0 1-37.6 24.88c-77.43 42.49-208.91 74.59-366.21 87.73q-37.15 3.11-76.12 4.77-40.86 1.72-83.34 1.74c-90.37 0-176.07-6.07-252.94-16.94-191.36-27.06-328-83.87-345.74-150.89 4.14-14.54 14.76-28.57 31.07-41.85 36.8-30 102.52-56.11 187.71-75.79q30-6.93 63.1-12.75c92-16.15 200.52-25.49 316.8-25.49 55.81 0 109.84 2.15 161.12 6.18 32.66 2.56 64.19 5.88 94.36 9.9h0c58.93 7.83 112.63 18.3 159.18 30.86h0c103.58 27.92 171.84 66.2 184.01 108.94z" class="O"/><g class="K"><path d="M1681.68 746.48c0 132.82-311.94 240.48-696.73 240.48S288.21 879.3 288.21 746.48a84.82 84.82 0 0 1 .25-6.38c9.79 129.87 317.88 234.1 696.49 234.1s686.69-104.23 696.48-234.1c.14 2.12.25 4.25.25 6.38zm-382.7-178.84c-43.36-8.11-90.36-14.59-140.07-19.15l-64.54-39.56c43.91 2.39 86.44 6.19 127.22 11.27z"/><path d="M1662.36 790.2c-10 14.39-23.84 28.28-41 41.54l-73.14-44.8c17.59-14.41 29.37-29.68 34.47-45.54z"/></g><path d="M790.57 682.8H780.3l-18.2 23.94q-2.7 3.54-5 7l119.16 73q16 .46 33.92.45h1.64l-5.13 18.18 62.88 38.46h29.34l2.41-32z" class="I"/><path d="M1012.67 709.08q19.11 2 28.25 5.85c4.87 2.07 8.18 4.8 9.88 8.2a13.31 13.31 0 0 0 2.91-9.25l-1.57-33.51c-.28-6-4.06-10.41-11.22-13.45q-9.12-3.88-28.25-5.85l-5.59 74 3.64-.27zm-66.51-120.02c-5.87 1.46-9.44 3.73-10.71 6.87l-5 12.39c-1.52 3.78.38 6.77 5.8 8.92q7.08 2.81 22.48 3.89l9.76-34.57q-14.81.65-22.33 2.5zm-98.79 50.77c-9-3.49-13.67-8-14.36-13.39h0v45.44c-.4 4.06 1.24 7.66 5 10.77l62.56-.22-11.54 28.6c-3.33 8.25-1.81 14.32 4.77 18a31.39 31.39 0 0 0 6.33 2.53l.44-1.11h-1.41l1.41-.14v-31.98q15.7 1.9 35.37 3.62l13.24-46.91c-52.75-4.11-86.44-9.23-101.81-15.21zm198.93-43.32c-.14-3.58-2.72-6.1-7.69-7.62q-6.33-1.93-20.3-2.56l-3 39.53c52 4.19 88.21 9.24 108.06 15.23a101.81 101.81 0 0 1 15 5.79v-39l-91.67.48zM911.84 787.17h-1.64c-78.38.09-128.65-7-149.93-20.48-8.54-5.42-13.11-12.33-14-20.52l-.17-.09v46h0c.27 9.14 4.87 16.77 14.14 22.66 20.18 12.82 66.45 19.82 138 20.43zm269.73-61.82c0 16-9.4 29.22-29 39-27.77 13.85-78 21.62-149.34 22.64l-4.29 56.85h-103v48h103l4.29-56.85c71.34-1 121.57-8.79 149.34-22.64 19.14-9.53 28.52-22.38 29-37.81h0v-49.2z" class="J"/><path d="M1071.02 542.57c-28.1-1.23-56.85-1.86-86.07-1.86-137.31 0-263.86 14-365 37.59l-43.5-26.64C691.23 522.94 832.37 506 984.97 506q13.38 0 26.65.18zm512.83 314.1c-78.7 45.58-199.83 81.4-344.56 101l-94.88-58.11c157.3-13.14 288.78-45.24 366.21-87.73zm-406.36-150.74l-12.92-32.95c-5.89-15-19.75-25.42-41.22-31.89-19.85-6-56.11-11-108-15.23l3-39.53c9.3.42 16.08 1.27 20.3 2.56 5 1.52 7.55 4 7.69 7.62l.46 11.82 91.67-.48-3.94-10.14c-4.74-12.17-15.27-19.58-31.54-23-15.22-3.22-43-4.81-83.4-4.86l.83-11h-4.25l-35.39.22h-4.52l-3.11 11c-37.88.78-65.72 3.1-83.83 7.06-19.48 4.25-33.39 11.71-41.76 23l-10 13.43c-8.4 11.33-5.48 20.25 9.84 26.2s49 11.08 101.76 15.2l-22.66 80.29q-24-1.42-32.72-6.31c-6.58-3.68-8.1-9.75-4.77-18l11.55-28.6-110 .39 210.72 129.2 1.88-24.9c71.34-1 121.57-8.79 149.35-22.64 27.12-13.57 34.68-33.72 24.98-58.46zm-218.78-84.77q-15.37-1.07-22.47-3.89c-5.42-2.16-7.32-5.15-5.8-8.92l5-12.39c1.27-3.14 4.84-5.41 10.71-6.86q7.53-1.87 22.31-2.51zm83.57 107.93q-10.55 4.38-35.2 6l5.59-74q19.11 2 28.24 5.85c7.17 3 11 7.49 11.23 13.45l1.56 33.51c.33 6.75-3.45 11.85-11.42 15.16zM561.41 593.86c-80.56 24.36-138.51 55.63-163.47 90.65l-53.53-32.8c40.07-32.23 100-60.82 174.38-84zm607.16 371.89c-58.51 5.51-120.08 8.45-183.64 8.45-40.86 0-80.9-1.21-119.83-3.55l-133.11-81.53c76.87 10.87 162.57 16.94 252.94 16.94q42.42 0 83.34-1.74zM876.28 786.72c-59.13-1.75-98-8.56-116-20s-18.43-29.82-3.15-53zm93.25 57.11h-73.69l10.87-38.47 62.82 38.47z" class="K"/><path d="M840.03 728.93v205.51c-46.24 3.35-94.17 5.1-143.3 5.1a1919.61 1919.61 0 0 1-238.83-14.51V719.54c74.49 9.4 154.93 14.51 238.83 14.51 49.13 0 97.06-1.75 143.3-5.12zm553.19-29.84c0 53.9-51.37 103.66-138.11 143.77V637.42c80.57-37.2 130.67-82.72 137.53-132.15v184a84.58 84.58 0 0 1 .58 9.82z" class="L"/><path d="M457.9 719.54v205.52C190.9 891.41.25 802.93.25 699.06v-195h.42c12.34 99.29 199.12 182.98 457.23 215.48zm639.08-29.11v205.5c-75.9 18.43-162.94 31.77-257 38.55V728.93c94.05-6.76 181.09-20.07 257-38.5z" class="M"/><path d="M1255.11 637.42v205.44c-44.22 20.44-97.64 38.37-158.13 53.06V690.43c60.48-14.67 113.9-32.58 158.13-53.01z" class="N"/><path d="M1260.01 546.8l73.14 44.79a339.73 339.73 0 0 1-37.52 24.93l-73.22-44.84c-77.43 42.48-208.91 74.59-366.21 87.72l94.87 58.11q-34.49 4.68-70.69 8.09l-100.3-61.43q-40.86 1.73-83.35 1.75c-90.36 0-176.06-6.07-252.93-16.94l133.1 81.52C255.1 711.25 8.99 615.8.25 499.95c2.36-31.32 22.07-61.15 55.94-88.38l53.54 32.79c25-35 82.91-66.28 163.46-90.65l-42.62-26.1q27.54-8.57 57.64-16.09l43.5 26.64c101.17-23.58 227.72-37.6 365-37.6q43.85 0 86.08 1.86l-59.42-36.39q42.06.54 82.77 2.78l64.53 39.53c49.72 4.57 96.72 11 140.07 19.15l-77.39-47.4c262.81 32.74 452.2 118.49 459.85 219.86-1.3 17.22-7.84 34-19.08 50.1l-79.66-48.8c-5.09 15.87-16.89 31.14-34.45 45.55z" class="I"/><path d="M1297.37 483.24a57.56 57.56 0 0 1-2 14.84c-12.17-42.74-80.44-81-184-108.94-46.57-12.56-100.25-23-159.2-30.86-30.16-4-61.7-7.33-94.37-9.89-51.27-4-105.31-6.18-161.12-6.18-116.27 0-224.83 9.33-316.79 25.49q-33 5.81-63.1 12.75c-85.2 19.67-150.91 45.83-187.71 75.79-16.31 13.28-26.93 27.3-31.08 41.84a57.56 57.56 0 0 1-2-14.84c0-13.34 4.71-26.35 13.64-38.88 25-35 82.91-66.28 163.46-90.65q27.57-8.33 58.52-15.55c101.17-23.58 227.72-37.6 365-37.6q43.85 0 86.08 1.86c30.07 1.32 59.43 3.31 87.88 5.92 49.72 4.57 96.72 11 140.07 19.15 172.06 32.14 286.72 89.87 286.72 155.75z" class="J"/><path d="M1295.41 498.08l-.93 3.17c-5.11 15.87-16.88 31.14-34.47 45.55a246.37 246.37 0 0 1-37.6 24.88c-77.43 42.48-208.91 74.59-366.21 87.72q-37.16 3.12-76.12 4.77-40.86 1.73-83.35 1.75c-90.36 0-176.06-6.07-252.93-16.94-191.36-27.07-328-83.87-345.75-150.9 4.15-14.54 14.77-28.56 31.08-41.84 36.8-30 102.51-56.12 187.71-75.79q30-6.93 63.1-12.75c92-16.16 200.52-25.49 316.79-25.49 55.81 0 109.85 2.15 161.12 6.18 32.67 2.56 64.2 5.88 94.37 9.89h0c58.94 7.84 112.63 18.3 159.19 30.86h0c103.56 27.92 171.83 66.2 184 108.94z" class="O"/><g class="K"><path d="M1393.46 506.34c0 132.81-311.94 240.48-696.73 240.48S0 639.15 0 506.34c0-2.14.08-4.26.25-6.39 9.79 129.87 317.88 234.1 696.48 234.1s686.69-104.23 696.49-234.1c.16 2.13.24 4.25.24 6.39zm-382.7-178.85c-43.35-8.1-90.35-14.58-140.07-19.15l-64.53-39.53c43.9 2.39 86.44 6.2 127.21 11.28z"/><path d="M1374.14 550.05c-10 14.4-23.83 28.28-41 41.54L1260 546.8c17.59-14.41 29.36-29.68 34.47-45.55z"/></g><path d="M502.32 442.66h-10.27l-18.2 23.94q-2.68 3.55-4.94 7l119.16 73q16 .46 33.92.45h1.63l-5.13 18.17 62.83 38.48h29.34l2.41-31.94z" class="I"/><path d="M724.45 468.93q19.13 2 28.25 5.85c4.88 2.07 8.19 4.8 9.89 8.21a13.29 13.29 0 0 0 2.9-9.25l-1.57-33.52c-.27-6-4-10.4-11.22-13.45q-9.12-3.88-28.25-5.85l-5.58 74 3.64-.27zm-66.5-120c-5.87 1.45-9.45 3.72-10.71 6.86l-5 12.4c-1.52 3.77.38 6.76 5.8 8.91q7.07 2.82 22.47 3.9l9.76-34.58q-14.8.64-22.32 2.51zm-98.79 50.75c-9-3.48-13.68-8-14.36-13.39h0v45.44c-.4 4.06 1.24 7.66 5 10.77l62.56-.22-11.54 28.6c-3.33 8.25-1.81 14.33 4.77 18a31.55 31.55 0 0 0 6.32 2.52l.45-1.11h-1.42l1.42-.14v-32q15.7 1.92 35.37 3.63l13.24-46.92c-52.75-4.1-86.4-9.2-101.81-15.18zm198.92-43.31c-.14-3.59-2.71-6.11-7.68-7.62q-6.33-1.93-20.31-2.56l-3 39.53c52 4.19 88.21 9.24 108.06 15.22a101.13 101.13 0 0 1 15.05 5.8v-39l-91.67.47zM623.63 547.03h-1.64c-78.38.1-128.65-6.95-149.93-20.47-8.54-5.43-13.11-12.33-14-20.53l-.17-.09v46h0c.27 9.14 4.87 16.78 14.14 22.67 20.18 12.82 66.45 19.82 138 20.42zm269.68-61.82c0 16-9.4 29.21-29 39-27.78 13.85-78 21.61-149.34 22.63l-4.29 56.85h-103v48h103l4.29-56.85c71.33-1 121.56-8.79 149.34-22.64 19.13-9.53 28.52-22.37 29-37.81h0v-49.18z" class="J"/><path d="M782.81 302.42q-42.16-1.83-86.08-1.86c-137.3 0-263.85 14-365 37.6l-43.5-26.64c114.78-28.73 255.92-45.66 408.52-45.66q13.39 0 26.66.17zm512.82 314.1c-78.7 45.58-199.83 81.41-344.56 101l-94.87-58.11c157.3-13.13 288.78-45.24 366.21-87.72zM889.28 465.75l-12.89-32.92c-5.89-15-19.76-25.41-41.23-31.88-19.84-6-56.1-11-108-15.23l3-39.53q14 .63 20.31 2.56c5 1.51 7.55 4 7.69 7.62l.46 11.81 91.67-.47-4-10.14c-4.73-12.17-15.26-19.59-31.53-23-15.23-3.21-43-4.8-83.4-4.86l.83-11h-4.25l-35.4.22h-4.51l-3.11 11c-37.89.79-65.72 3.11-83.83 7.06-19.48 4.25-33.39 11.71-41.77 23l-10 13.43c-8.4 11.32-5.47 20.24 9.84 26.2s49.06 11.07 101.77 15.2l-22.66 80.29q-24-1.44-32.72-6.32c-6.58-3.67-8.11-9.75-4.77-18l11.55-28.61-110 .4 210.75 129.08 1.88-24.91c71.34-1 121.56-8.79 149.34-22.63 27.11-13.44 34.67-33.6 24.98-58.37zM670.5 380.98q-15.37-1.07-22.47-3.88c-5.42-2.16-7.32-5.15-5.8-8.92l5-12.4c1.26-3.14 4.84-5.41 10.71-6.86q7.53-1.86 22.31-2.51zm83.57 107.95q-10.55 4.37-35.2 6l5.58-74q19.11 2 28.25 5.85c7.17 3.05 10.95 7.5 11.23 13.45l1.56 33.51c.32 6.76-3.46 11.87-11.42 15.19zM273.19 353.71c-80.55 24.37-138.5 55.64-163.46 90.65l-53.54-32.79c40.08-32.23 100-60.83 174.38-84zM880.38 725.6c-58.51 5.51-120.09 8.45-183.65 8.45-40.85 0-80.9-1.21-119.83-3.55l-133.1-81.52c76.87 10.87 162.57 16.94 252.93 16.94q42.42 0 83.35-1.75zM588.07 546.58c-59.13-1.76-98-8.56-116-20-18.19-11.54-18.43-29.82-3.15-53zm93.24 57.1h-73.68l10.86-38.47 62.82 38.47z" class="K"/><path d="M874.67 463.1v205.51c-46.24 3.34-94.17 5.1-143.29 5.1a1919.66 1919.66 0 0 1-238.81-14.51V453.68a1919.66 1919.66 0 0 0 238.84 14.51c49.09 0 97.02-1.76 143.26-5.09zm553.19-29.87c0 53.9-51.37 103.66-138.11 143.77V371.56c80.58-37.2 130.67-82.72 137.53-132.15v184a84.75 84.75 0 0 1 .58 9.82z" class="L"/><path d="M492.57 453.68V659.2c-267-33.65-457.65-122.13-457.65-226v-195h.42c12.32 99.29 199.09 182.98 457.23 215.48zm639.06-29.11v205.49c-75.9 18.43-163 31.76-257 38.55V463.1c94.05-6.79 181.09-20.1 257-38.53z" class="M"/><path d="M1289.75 371.56V577c-44.22 20.44-97.63 38.37-158.12 53.06V424.57c60.48-14.64 113.94-32.58 158.12-53.01z" class="N"/><path d="M1294.65 280.93l73.14 44.79a340.51 340.51 0 0 1-37.51 24.93l-73.23-44.84c-77.43 42.48-208.91 74.59-366.21 87.72l94.88 58.11q-34.5 4.68-70.7 8.09l-100.3-61.43q-40.86 1.72-83.34 1.75c-90.37 0-176.07-6.07-252.94-16.94l133.13 81.53C289.76 445.39 43.65 349.94 34.91 234.09c2.36-31.32 22.07-61.15 55.95-88.38l53.54 32.79c25-35 82.9-66.29 163.46-90.65l-42.62-26.1q27.52-8.57 57.64-16.1l43.5 26.65c101.16-23.58 227.71-37.6 365-37.6 29.22 0 58 .63 86.07 1.86L758.03.17q42.07.54 82.77 2.78l64.54 39.53c49.71 4.57 96.71 11 140.07 19.15l-77.39-47.4c262.8 32.74 452.2 118.49 459.84 219.86-1.29 17.21-7.83 34-19.07 50.1l-79.67-48.8c-5.1 15.87-16.88 31.13-34.47 45.54z" class="I"/><path d="M1332.01 217.38a57.56 57.56 0 0 1-2 14.84c-12.17-42.74-80.43-81-184-108.94-46.56-12.56-100.25-23-159.19-30.86-30.17-4-61.71-7.33-94.37-9.9-51.28-4-105.31-6.17-161.12-6.17-116.27 0-224.84 9.33-316.79 25.49q-33 5.8-63.11 12.75c-85.19 19.67-150.91 45.83-187.71 75.79-16.31 13.27-26.93 27.3-31.07 41.84a57.56 57.56 0 0 1-2-14.84c0-13.34 4.7-26.35 13.64-38.88 25-35 82.9-66.29 163.46-90.65q27.56-8.34 58.52-15.55c101.16-23.58 227.71-37.6 365-37.6 29.22 0 58 .63 86.07 1.86 30.07 1.32 59.43 3.3 87.89 5.92 49.71 4.57 96.71 11 140.07 19.15 172.05 32.14 286.71 89.87 286.71 155.75z" class="J"/><path d="M1330.05 232.22l-.93 3.17c-5.1 15.87-16.88 31.13-34.47 45.55a246.37 246.37 0 0 1-37.6 24.88c-77.43 42.48-208.91 74.59-366.21 87.72q-37.15 3.12-76.12 4.77-40.86 1.72-83.34 1.75c-90.37 0-176.07-6.07-252.94-16.94-191.36-27.07-328-83.88-345.74-150.9 4.14-14.54 14.76-28.57 31.07-41.84 36.8-30 102.52-56.12 187.71-75.79q30-6.93 63.11-12.75c92-16.16 200.52-25.49 316.79-25.49 55.81 0 109.84 2.15 161.12 6.17 32.66 2.57 64.19 5.88 94.36 9.9h0c58.93 7.84 112.63 18.3 159.18 30.86h0c103.58 27.92 171.84 66.2 184.01 108.94z" class="O"/><g class="K"><path d="M1428.11 240.48c0 132.81-311.94 240.47-696.73 240.47S34.64 373.29 34.64 240.48c0-2.14.09-4.26.25-6.39 9.79 129.87 317.88 234.1 696.49 234.1s686.69-104.23 696.48-234.1c.16 2.13.25 4.25.25 6.39zm-382.7-178.85c-43.36-8.1-90.36-14.58-140.07-19.15L840.8 2.93c43.91 2.39 86.44 6.2 127.22 11.28z"/><path d="M1408.79 284.19c-10 14.4-23.84 28.28-41 41.54l-73.14-44.8c17.59-14.42 29.37-29.68 34.47-45.55z"/></g><path d="M536.97 176.8H526.7l-18.2 23.94-5 7 119.16 73q16 .48 33.92.46h1.64l-5.13 18.17 62.82 38.48h29.34l2.41-32z" class="I"/><path d="M759.1 203.07q19.11 2 28.25 5.85c4.87 2.07 8.18 4.8 9.88 8.21a13.35 13.35 0 0 0 2.91-9.26l-1.57-33.51c-.28-6-4.06-10.4-11.22-13.45q-9.12-3.88-28.25-5.85l-5.59 74 3.64-.27zM692.57 83.06c-5.87 1.45-9.44 3.72-10.71 6.86l-5 12.4c-1.52 3.77.38 6.76 5.8 8.91q7.08 2.82 22.48 3.89l9.76-34.57q-14.79.64-22.33 2.51zm-98.77 50.76c-9-3.48-13.67-8-14.36-13.39h0v45.44c-.4 4.06 1.24 7.66 5 10.77l62.57-.22-11.55 28.6c-3.33 8.25-1.81 14.33 4.77 18a32 32 0 0 0 6.33 2.52l.45-1.11h-1.44l1.42-.14v-31.95q15.69 1.92 35.36 3.63l13.22-46.94c-52.71-4.1-86.4-9.23-101.77-15.21zm198.93-43.31c-.14-3.59-2.72-6.11-7.69-7.63q-6.33-1.92-20.3-2.56l-3 39.54c52 4.19 88.21 9.23 108.06 15.22a101.81 101.81 0 0 1 15 5.79v-39l-91.67.47zM658.27 281.17h-1.64c-78.38.1-128.65-7-149.93-20.48-8.54-5.42-13.11-12.33-14-20.52l-.17-.09v46h0c.27 9.14 4.87 16.78 14.14 22.66 20.18 12.83 66.45 19.83 138 20.43zm269.68-61.82c0 15.95-9.4 29.21-29 39-27.77 13.85-78 21.62-149.34 22.64l-4.29 56.85h-103v48h103l4.29-56.85c71.34-1 121.57-8.79 149.34-22.64 19.14-9.53 28.52-22.38 29-37.81h0v-49.18z" class="J"/><path d="M817.45 36.56c-28.1-1.23-56.85-1.86-86.07-1.86-137.31 0-263.86 14-365 37.6l-43.5-26.65C437.66 16.93 578.8 0 731.4 0q13.38 0 26.65.17zm512.83 314.1c-78.7 45.58-199.83 81.41-344.56 101l-94.88-58.11c157.3-13.13 288.78-45.24 366.21-87.72zM923.92 199.93l-12.89-33c-5.89-15-19.75-25.41-41.22-31.89-19.85-6-56.11-11-108-15.22l3-39.53c9.3.42 16.08 1.26 20.3 2.56 5 1.51 7.55 4 7.69 7.61l.46 11.82 91.67-.47-3.94-10.14c-4.74-12.18-15.27-19.59-31.54-23-15.22-3.21-43-4.8-83.4-4.86l.83-11h-4.25l-35.39.22h-4.52l-3.11 11c-37.88.78-65.72 3.11-83.83 7.06-19.48 4.25-33.39 11.71-41.76 23l-10 13.44c-8.4 11.32-5.48 20.24 9.84 26.19s49 11.08 101.77 15.21l-22.67 80.29q-24-1.44-32.72-6.32c-6.58-3.67-8.1-9.75-4.77-18l11.55-28.6-110 .4 210.74 129.07 1.81-24.84c71.34-1 121.57-8.79 149.35-22.63 27.14-13.48 34.7-33.64 25-58.37zm-218.78-84.77q-15.37-1.07-22.47-3.89c-5.42-2.15-7.32-5.14-5.8-8.92l5-12.39c1.27-3.14 4.84-5.41 10.71-6.86q7.53-1.86 22.31-2.51zm83.57 107.94q-10.55 4.36-35.2 6l5.59-74q19.11 2 28.24 5.85c7.17 3 11 7.5 11.23 13.45l1.56 33.51c.33 6.73-3.45 11.84-11.42 15.15zM307.84 87.85c-80.56 24.36-138.51 55.63-163.46 90.65l-53.54-32.79c40.07-32.24 100-60.83 174.38-84zm607.18 371.89c-58.5 5.51-120.08 8.45-183.64 8.45-40.86 0-80.9-1.21-119.83-3.55l-133.11-81.52c76.87 10.87 162.57 16.94 252.94 16.94q42.42 0 83.34-1.75zM622.71 280.71c-59.13-1.75-98-8.55-116-20s-18.43-29.82-3.15-53zm93.25 57.11h-73.69l10.87-38.47 62.82 38.47z" class="K"/><path d="M1977.82 1165.11l-159.57 129.51c-31.73-33.79-63.3-69.9-94.26-108.05a1918.27 1918.27 0 0 1-139.24-194.58l159.57-129.52a1919.92 1919.92 0 0 0 139.25 194.59c31 38.14 62.52 74.25 94.25 108.05zm371.81 410.69c-41.86 34-112.86 25.45-198.67-16.63l159.51-129.47c79.66 39.12 146.58 49.34 189.28 23.51l-142.86 115.95a84.52 84.52 0 0 1-7.26 6.64z" class="L"/><path d="M1744.32 862.47l-159.57 129.52c-142.15-228.53-193.59-432.3-113-497.74l151.42-122.91.27.33c-69.27 72.15-16.55 269.91 120.88 490.8zm425.34 477.87l-159.55 129.49c-62.14-47.31-127.34-106.49-191.86-175.21l159.57-129.51c64.51 68.71 129.75 127.9 191.84 175.23z" class="M"/><path d="M2310.47 1429.7l-159.51 129.47c-43.73-21.45-91.32-51.63-140.85-89.34l159.55-129.49c49.51 37.71 97.08 67.9 140.81 89.36z" class="N"/><path d="M2383.92 1376.4l11.32 85a338.83 338.83 0 0 1-43-13.41l-11.33-85.06c-81.78-33.35-189.57-115.21-298.89-229.06l14.67 110.28q-25.36-23.83-50.83-49.79l-15.52-116.59q-27.09-30.63-53.88-63.61c-56.94-70.16-106.24-140.53-146.24-207.06l20.58 154.72c-187.85-262-268.84-513.24-184.4-593 25.81-17.9 61.39-21.4 103.89-12.26l8.27 62.24c42.92-2.7 103.72 22.6 173.4 69.79l-6.59-49.66q24 16 48.82 34.62l6.73 50.56c82.06 63.69 172.69 153.12 259.22 259.72q27.63 34.05 52.8 68l-9.19-69.07q26.09 33 50 66l10 75c27.79 41.48 52.37 82 73.4 120.82l-12-90c140.19 224.69 193 425.78 119.07 495.6-14.18 9.84-31.31 15.32-50.91 16.76l-12.32-92.61c-15.51 6.17-34.79 6.6-57.07 2.07z" class="I"/><path d="M2456.82 1365.36a57.61 57.61 0 0 1-12.76 7.83c25.51-36.39 12.22-113.52-31.37-211.51-19.59-44.07-45.3-92.35-76.36-143.05-15.89-26-33.19-52.54-51.79-79.52-29.18-42.35-61.56-85.66-96.74-129-73.27-90.28-148.93-168.69-219.43-229.91q-25.32-22-49.66-41c-69-53.75-130.69-88.28-177.15-98-20.58-4.29-38.16-3.7-52.07 2.24a57.7 57.7 0 0 1 10.29-10.87c10.36-8.41 23.43-13 38.78-13.91 42.92-2.7 103.72 22.6 173.4 69.79q23.84 16.14 49 35.63c82.06 63.69 172.69 153.12 259.22 259.72q27.63 34.05 52.8 68 26.9 36.27 50.79 72c27.79 41.48 52.37 82 73.4 120.82 83.4 153.81 110.8 279.22 59.65 320.74z" class="J"/><path d="M2444.06 1373.19l-3 1.27c-15.53 6-34.81 6.51-57.09 1.94a245.8 245.8 0 0 1-43-13.51c-81.78-33.35-189.57-115.21-298.89-229.06q-25.85-26.9-51.68-56.1-27.09-30.63-53.88-63.61c-56.94-70.16-106.24-140.53-146.24-207.06-99.58-165.64-141.6-307.55-100.73-363.55 13.91-5.94 31.49-6.53 52.07-2.24 46.46 9.7 108.18 44.23 177.15 98q24.29 18.95 49.66 41c70.5 61.22 146.16 139.63 219.43 229.91 35.18 43.33 67.56 86.64 96.74 129q27.9 40.47 51.79 79.51h0c31.06 50.69 56.77 99 76.36 143h0c43.53 97.98 56.82 175.11 31.31 211.5z" class="O"/><g class="K"><path d="M2499.44 1454.52c-103.12 83.7-383.3-90.65-625.79-389.42s-355.48-608.82-252.36-692.52q2.49-2 5.11-3.83c-94.66 89.45 18.57 394.34 257.16 688.31s513.68 467.48 620.68 393.25a80.27 80.27 0 0 1-4.8 4.21zm-102.31-409.85c-21-38.77-45.61-79.34-73.4-120.82l-10-75c25.81 35.59 49.67 71 71.42 105.88z"/><path d="M2453.33 1467.07c-17.51 1.28-37-.69-58.09-5.66l-11.32-85c22.28 4.57 41.56 4.1 57.09-1.94z"/></g><path d="M1987.29 722.48l-6.49-8-30.06 1-8.51.54 18.42 138.52q9.71 12.71 21 26.62l1 1.27-17.34 7.47 9.71 73 18.49 22.78 26.33-18.26z" class="I"/><path d="M2106.88 911.5q10.5 16.09 13.26 25.62 2.2 7.65-.14 12.85a13.32 13.32 0 0 0 9-3.57l25-22.34c4.45-4 5.52-9.71 3.37-17.19q-2.74-9.53-13.26-25.62l-61 42.31 2.51 2.66zm51.27-127.26c-4.83-3.64-8.84-5-12.07-4l-12.79 3.93c-3.88 1.19-5 4.55-3.27 10.12q2.28 7.26 11.15 19.9l33-14.21q-9.83-11.05-16.02-15.74zm-101.67-44.72c-2.94-9.15-2.42-15.65 1.35-19.59h0l-35.26 28.61c-3.4 2.24-5.16 5.78-5.22 10.65l39.6 48.44-29.48 9.06c-8.5 2.61-12.26 7.63-11 15a31.29 31.29 0 0 0 2 6.5l1.15-.35-.9-1.1 1 1 24.81-20.13q8.41 13.38 19.47 29.74l44.78-19.28c-29.98-43.48-47.21-72.85-52.3-88.55zm158.99 127.16c2.7-2.37 3-6 1.08-10.77q-2.49-6.13-10.81-17.38l-32.58 22.59c29.49 43 48.42 74.32 56.28 93.5a101 101 0 0 1 5 15.34l30.3-24.6-58.17-70.88zm-232.77 15.76l-1-1.28c-49.47-60.79-75.68-104.27-78.59-129.31-1.17-10.05 1.31-18 7.12-23.8v-.19l-35.69 29h0c-6.93 6-10 14.35-8.69 25.26 2.77 23.76 26.49 64.09 71.13 120zm217.96 170.43c-12.41 10-28.61 11.11-48.56 2-28.26-12.83-66-46.94-111.69-101.68l-46.84 32.52-6.26-7.7-52.44-64.61-.22-.29-6-7.39h0l-37.27 30.26h0l6.23 7.67 52.44 64.61 2.55 3.15 3.7 4.56 46.85-32.5c45.74 54.75 83.43 88.85 111.69 101.69 19.46 8.85 35.35 8 47.63-1.32h0l38.2-31z" class="J"/><path d="M2272.94 851.93q-25.14-33.9-52.8-68c-86.53-106.6-177.16-196-259.22-259.72l-6.73-50.56c94.64 71 196.73 169.93 292.9 288.41q8.43 10.41 16.66 20.81zm79.3 596.07c-85-32.38-189.14-103.85-295.55-203.89l-14.67-110.28c109.32 113.85 217.11 195.71 298.89 229.06zm-139.02-410.52l17.44-30.75c8-14.07 7.28-31.36-1.22-52.11-7.86-19.18-26.79-50.52-56.27-93.49l32.57-22.6q8.31 11.24 10.8 17.38c2 4.81 1.63 8.4-1.06 10.77l-8.89 7.81 58.14 70.87 5.39-9.45c6.46-11.35 5.58-24.2-2-39-7.11-13.85-23.35-36.39-48.79-67.82l9.06-6.28-2.7-3.28-22.48-27.34-2.86-3.49-10.53 4.53c-24.48-28.92-43.83-49.07-58.31-60.64-15.57-12.45-30.13-18.54-44.17-17.94l-16.72.72c-14.09.61-19.17 8.5-14.14 24.15s22.31 45.06 52.33 88.6l-76.62 33q-14-19.52-15.72-29.39c-1.29-7.42 2.47-12.44 11-15l29.48-9.06-69.63-85.16 32.6 245 20.52-14.23c45.74 54.75 83.43 88.85 111.68 101.69 27.57 12.47 47.98 5.65 61.1-17.49zm-72.05-223.29q-8.86-12.62-11.15-19.9c-1.74-5.57-.62-8.93 3.27-10.12l12.78-3.93q4.86-1.49 12.08 4 6.2 4.67 16 15.74zm-31.14 132.9q-10-5.43-26.86-23.53l61-42.31q10.52 16.08 13.27 25.62c2.15 7.48 1.07 13.22-3.37 17.19l-25 22.33c-5.11 4.54-11.5 4.8-19.04.7zm-198.07-458.57c-69.68-47.19-130.48-72.49-173.4-69.79l-8.27-62.24c50.28 10.8 110.22 39.28 175.08 82.48zm93.9 705.8c-41.15-41.95-82.24-87.91-122.3-137.26q-38.62-47.6-72.76-95.28l-20.58-154.72c40 66.53 89.3 136.9 146.24 207.06q26.74 32.94 53.88 63.61zm-45.21-339.78c-35.9-47-55.1-81.46-57.57-102.69-2.49-21.4 11.54-33.11 39.15-35.83zm14.42 108.39l-46.44-57.21 36.73-15.81 9.71 73.02z" class="K"/></svg>